<svg width="77" height="34" viewBox="0 0 77 34" fill="none" xmlns="http://www.w3.org/2000/svg">
<path fill-rule="evenodd" clip-rule="evenodd" d="M10.5154 6.91549C11.9524 7.0394 13.3894 6.17205 14.2875 5.07237C15.1707 3.94171 15.7544 2.42384 15.6047 0.875C14.3324 0.936954 12.7607 1.74235 11.8626 2.87301C11.0393 3.84878 10.3358 5.4286 10.5154 6.91549ZM27.6096 26.8646V2.71811H36.3662C40.8867 2.71811 44.0451 5.93971 44.0451 10.6482C44.0451 15.3567 40.8268 18.6092 36.2465 18.6092H31.232V26.8646H27.6096ZM15.5897 7.20983C14.3238 7.13444 13.1686 7.60378 12.2356 7.98287C11.6352 8.22683 11.1267 8.43342 10.7399 8.43342C10.3058 8.43342 9.77636 8.21579 9.18191 7.97143C8.403 7.65125 7.51248 7.28519 6.57863 7.30276C4.43813 7.33374 2.44731 8.5883 1.3546 10.5863C-0.890683 14.5823 0.770828 20.4989 2.94127 23.7515C4.00404 25.3623 5.27637 27.128 6.95285 27.066C7.6904 27.0372 8.22095 26.8043 8.77002 26.5632C9.40214 26.2856 10.0588 25.9973 11.0842 25.9973C12.074 25.9973 12.7019 26.2781 13.3047 26.5477C13.8779 26.804 14.4283 27.0501 15.2454 27.035C16.9818 27.004 18.0745 25.4242 19.1373 23.8134C20.2841 22.0847 20.7881 20.3975 20.8646 20.1413L20.8646 20.1413L20.8647 20.1413L20.8736 20.1117C20.8728 20.1108 20.8694 20.109 20.8637 20.1061C20.8596 20.1041 20.8542 20.1015 20.8477 20.0984C20.8434 20.0963 20.8385 20.094 20.8331 20.0915L20.8326 20.0912C20.4492 19.9096 17.5188 18.5215 17.4907 14.7992C17.4625 11.6748 19.815 10.0918 20.1854 9.84261C20.2079 9.82745 20.2231 9.81722 20.23 9.81189C18.7331 7.5196 16.398 7.27179 15.5897 7.20983ZM50.6613 27.0504C52.9365 27.0504 55.0471 25.8578 56.0051 23.9682H56.0799V26.8645H59.4329V14.8455C59.4329 11.3606 56.7386 9.11476 52.5923 9.11476C48.7453 9.11476 45.9013 11.3916 45.7965 14.5202H49.0597C49.3291 13.0333 50.6613 12.0576 52.4875 12.0576C54.7028 12.0576 55.9452 13.1263 55.9452 15.0933V16.4253L51.4247 16.7041C47.2185 16.9674 44.9433 18.7486 44.9433 21.8463C44.9433 24.9749 47.2934 27.0504 50.6613 27.0504ZM51.6341 24.185C49.7031 24.185 48.4757 23.2248 48.4757 21.7534C48.4757 20.2355 49.6582 19.3527 51.9185 19.2133L55.945 18.95V20.3129C55.945 22.5743 54.0889 24.185 51.6341 24.185ZM70.5545 27.8094C69.1025 32.0377 67.441 33.4317 63.9084 33.4317C63.639 33.4317 62.7409 33.4007 62.5313 33.3387V30.4424C62.7559 30.4734 63.3097 30.5044 63.5941 30.5044C65.1957 30.5044 66.0938 29.8074 66.6477 27.9952L66.977 26.9265L60.8399 9.34716H64.6269L68.893 23.612H68.9678L73.2339 9.34716H76.9161L70.5545 27.8094ZM31.2316 5.8778H35.4079C38.5513 5.8778 40.3475 7.6125 40.3475 10.6637C40.3475 13.7149 38.5513 15.4651 35.3929 15.4651H31.2316V5.8778Z" fill="black"/>
</svg>
