<svg width="107" height="75" viewBox="0 0 107 75" fill="none" xmlns="http://www.w3.org/2000/svg">
<rect x="0.5" y="0.5" width="106" height="74" rx="9.5" fill="white" stroke="#D9D9D9"/>
<path fill-rule="evenodd" clip-rule="evenodd" d="M25.5154 27.9155C26.9524 28.0394 28.3894 27.172 29.2875 26.0724C30.1707 24.9417 30.7544 23.4238 30.6047 21.875C29.3324 21.937 27.7607 22.7424 26.8626 23.873C26.0393 24.8488 25.3358 26.4286 25.5154 27.9155ZM42.6096 47.8646V23.7181H51.3662C55.8867 23.7181 59.0451 26.9397 59.0451 31.6482C59.0451 36.3567 55.8268 39.6092 51.2465 39.6092H46.232V47.8646H42.6096ZM30.5897 28.2098C29.3238 28.1344 28.1686 28.6038 27.2356 28.9829C26.6352 29.2268 26.1267 29.4334 25.7399 29.4334C25.3058 29.4334 24.7764 29.2158 24.1819 28.9714C23.403 28.6513 22.5125 28.2852 21.5786 28.3028C19.4381 28.3337 17.4473 29.5883 16.3546 31.5863C14.1093 35.5823 15.7708 41.4989 17.9413 44.7515C19.004 46.3623 20.2764 48.128 21.9528 48.066C22.6904 48.0372 23.2209 47.8043 23.77 47.5632C24.4021 47.2856 25.0588 46.9973 26.0842 46.9973C27.074 46.9973 27.7019 47.2781 28.3047 47.5477C28.8779 47.804 29.4283 48.0501 30.2454 48.035C31.9818 48.004 33.0745 46.4242 34.1373 44.8134C35.2841 43.0847 35.7881 41.3975 35.8646 41.1413L35.8646 41.1413L35.8647 41.1413L35.8736 41.1117C35.8728 41.1108 35.8694 41.109 35.8637 41.1061C35.8596 41.1041 35.8542 41.1015 35.8477 41.0984C35.8434 41.0963 35.8385 41.094 35.8331 41.0915L35.8326 41.0912C35.4492 40.9096 32.5188 39.5215 32.4907 35.7992C32.4625 32.6748 34.815 31.0918 35.1854 30.8426C35.2079 30.8274 35.2231 30.8172 35.23 30.8119C33.7331 28.5196 31.398 28.2718 30.5897 28.2098ZM65.6613 48.0504C67.9365 48.0504 70.0471 46.8578 71.0051 44.9682H71.0799V47.8645H74.4329V35.8455C74.4329 32.3606 71.7386 30.1148 67.5923 30.1148C63.7453 30.1148 60.9013 32.3916 60.7965 35.5202H64.0597C64.3291 34.0333 65.6613 33.0576 67.4875 33.0576C69.7028 33.0576 70.9452 34.1263 70.9452 36.0933V37.4253L66.4247 37.7041C62.2185 37.9674 59.9433 39.7486 59.9433 42.8463C59.9433 45.9749 62.2934 48.0504 65.6613 48.0504ZM66.6341 45.185C64.7031 45.185 63.4757 44.2248 63.4757 42.7534C63.4757 41.2355 64.6582 40.3527 66.9185 40.2133L70.945 39.95V41.3129C70.945 43.5743 69.0889 45.185 66.6341 45.185ZM85.5545 48.8094C84.1025 53.0377 82.441 54.4317 78.9084 54.4317C78.639 54.4317 77.7409 54.4007 77.5313 54.3387V51.4424C77.7559 51.4734 78.3097 51.5044 78.5941 51.5044C80.1957 51.5044 81.0938 50.8074 81.6477 48.9952L81.977 47.9265L75.8399 30.3472H79.6269L83.893 44.612H83.9678L88.2339 30.3472H91.9161L85.5545 48.8094ZM46.2316 26.8778H50.4079C53.5513 26.8778 55.3475 28.6125 55.3475 31.6637C55.3475 34.7149 53.5513 36.4651 50.3929 36.4651H46.2316V26.8778Z" fill="black"/>
</svg>
