<svg width="109" height="75" viewBox="0 0 109 75" fill="none" xmlns="http://www.w3.org/2000/svg">
<rect x="0.5" y="0.5" width="108" height="74" rx="7.5" fill="white" stroke="#D9D9D9"/>
<path fill-rule="evenodd" clip-rule="evenodd" d="M55.5155 54.8318C51.3564 58.2832 45.9614 60.3667 40.0662 60.3667C26.9121 60.3667 16.2485 49.9933 16.2485 37.197C16.2485 24.4008 26.9121 14.0273 40.0662 14.0273C45.9615 14.0273 51.3565 16.1109 55.5156 19.5623C59.6746 16.1109 65.0696 14.0274 70.9649 14.0274C84.119 14.0274 94.7825 24.4008 94.7825 37.1971C94.7825 49.9933 84.119 60.3668 70.9649 60.3668C65.0696 60.3668 59.6746 58.2832 55.5155 54.8318Z" fill="#ED0006"/>
<path fill-rule="evenodd" clip-rule="evenodd" d="M55.5154 54.8318C60.6365 50.582 63.8838 44.2584 63.8838 37.197C63.8838 30.1356 60.6365 23.812 55.5154 19.5623C59.6744 16.1109 65.0694 14.0273 70.9647 14.0273C84.1188 14.0273 94.7823 24.4008 94.7823 37.197C94.7823 49.9933 84.1188 60.3667 70.9647 60.3667C65.0694 60.3667 59.6744 58.2832 55.5154 54.8318Z" fill="#F9A000"/>
<path fill-rule="evenodd" clip-rule="evenodd" d="M55.5157 54.8318C60.6367 50.582 63.8839 44.2585 63.8839 37.1971C63.8839 30.1358 60.6367 23.8122 55.5157 19.5625C50.3947 23.8122 47.1475 30.1358 47.1475 37.1971C47.1475 44.2585 50.3947 50.582 55.5157 54.8318Z" fill="#FF5E00"/>
</svg>
