<svg width="79" height="47" viewBox="0 0 79 47" fill="none" xmlns="http://www.w3.org/2000/svg">
<path fill-rule="evenodd" clip-rule="evenodd" d="M39.5155 40.8318C35.3564 44.2832 29.9614 46.3667 24.0662 46.3667C10.9121 46.3667 0.248535 35.9933 0.248535 23.197C0.248535 10.4008 10.9121 0.0273438 24.0662 0.0273438C29.9615 0.0273438 35.3565 2.1109 39.5156 5.56234C43.6746 2.11095 49.0696 0.0274124 54.9649 0.0274124C68.119 0.0274124 78.7825 10.4008 78.7825 23.1971C78.7825 35.9933 68.119 46.3668 54.9649 46.3668C49.0696 46.3668 43.6746 44.2832 39.5155 40.8318Z" fill="#ED0006"/>
<path fill-rule="evenodd" clip-rule="evenodd" d="M39.5154 40.8318C44.6365 36.582 47.8838 30.2584 47.8838 23.197C47.8838 16.1356 44.6365 9.812 39.5154 5.56225C43.6744 2.11087 49.0694 0.0273438 54.9647 0.0273438C68.1188 0.0273438 78.7823 10.4008 78.7823 23.197C78.7823 35.9933 68.1188 46.3667 54.9647 46.3667C49.0694 46.3667 43.6744 44.2832 39.5154 40.8318Z" fill="#F9A000"/>
<path fill-rule="evenodd" clip-rule="evenodd" d="M39.5157 40.8318C44.6367 36.582 47.8839 30.2585 47.8839 23.1971C47.8839 16.1358 44.6367 9.81224 39.5157 5.5625C34.3947 9.81224 31.1475 16.1358 31.1475 23.1971C31.1475 30.2585 34.3947 36.582 39.5157 40.8318Z" fill="#FF5E00"/>
</svg>
