<svg width="107" height="75" viewBox="0 0 107 75" fill="none" xmlns="http://www.w3.org/2000/svg">
<rect x="0.5" y="0.5" width="106" height="74" rx="9.5" fill="white" stroke="#D9D9D9"/>
<path fill-rule="evenodd" clip-rule="evenodd" d="M30.7045 47.6279H25.8798C25.5497 47.6279 25.2689 47.8697 25.2174 48.198L23.266 60.6638C23.2273 60.9099 23.4163 61.1316 23.6639 61.1316H25.9673C26.2974 61.1316 26.5782 60.8898 26.6297 60.5609L27.156 57.1987C27.2068 56.8694 27.4883 56.628 27.8177 56.628H29.3451C32.5232 56.628 34.3573 55.0783 34.8366 52.0075C35.0524 50.6641 34.8457 49.6085 34.2212 48.869C33.5356 48.0575 32.3192 47.6279 30.7045 47.6279ZM31.2611 52.1809C30.9973 53.9253 29.6745 53.9253 28.3955 53.9253H27.6675L28.1782 50.6674C28.2086 50.4707 28.3779 50.3256 28.5754 50.3256H28.9091C29.7803 50.3256 30.6023 50.3256 31.027 50.826C31.2801 51.1246 31.3577 51.5681 31.2611 52.1809ZM45.1266 52.125H42.8162C42.6193 52.125 42.4492 52.27 42.4188 52.4671L42.3167 53.1181L42.1551 52.8822C41.6549 52.1506 40.5397 51.9062 39.4264 51.9062C36.8731 51.9062 34.6926 53.8546 34.2679 56.5878C34.0472 57.951 34.3609 59.2546 35.1285 60.1638C35.8327 60.9997 36.8401 61.348 38.0386 61.348C40.0957 61.348 41.2367 60.0151 41.2367 60.0151L41.1335 60.6622C41.0947 60.9095 41.2837 61.1312 41.5299 61.1312H43.6111C43.9422 61.1312 44.2213 60.8895 44.2735 60.5605L45.5223 52.5927C45.5618 52.3477 45.3734 52.125 45.1266 52.125ZM41.906 56.6559C41.683 57.9858 40.6353 58.8786 39.2994 58.8786C38.6285 58.8786 38.0922 58.6618 37.7481 58.251C37.4066 57.8431 37.2766 57.2622 37.3853 56.6155C37.5936 55.2967 38.6589 54.375 39.9746 54.375C40.6305 54.375 41.1639 54.5944 41.5152 55.0089C41.8671 55.4276 42.0068 56.0118 41.906 56.6559ZM55.1097 52.1247H57.4315C57.7567 52.1247 57.9464 52.4921 57.7616 52.7608L50.0396 63.9918C49.9146 64.1737 49.7086 64.2819 49.4885 64.2819H47.1696C46.8432 64.2819 46.6525 63.9115 46.8415 63.6421L49.246 60.2224L46.6887 52.6605C46.6003 52.3977 46.7929 52.1247 47.0704 52.1247H49.3517C49.6482 52.1247 49.9097 52.3207 49.9952 52.6066L51.3524 57.1737L54.5547 52.421C54.6801 52.2355 54.8883 52.1247 55.1097 52.1247Z" fill="#253B80"/>
<path fill-rule="evenodd" clip-rule="evenodd" d="M80.2827 60.6635L82.2627 47.9697C82.2931 47.7727 82.4625 47.6276 82.6594 47.627H84.8885C85.1346 47.627 85.3237 47.8493 85.2848 48.0954L83.3322 60.5605C83.2813 60.8895 83.0005 61.1313 82.6698 61.1313H80.679C80.4328 61.1313 80.2438 60.9096 80.2827 60.6635ZM65.1185 47.6276H60.2929C59.9635 47.6276 59.6828 47.8694 59.6312 48.1977L57.6799 60.6635C57.641 60.9096 57.8301 61.1313 58.0765 61.1313H60.5525C60.7826 61.1313 60.9795 60.9622 61.0154 60.7319L61.5691 57.1984C61.62 56.8691 61.9015 56.6276 62.2309 56.6276H63.7574C66.9363 56.6276 68.77 55.078 69.2496 52.0072C69.4661 50.6638 69.2581 49.6082 68.6339 48.8687C67.9486 48.0572 66.7332 47.6276 65.1185 47.6276ZM65.6751 52.1806C65.412 53.925 64.0891 53.925 62.8094 53.925H62.082L62.5936 50.6671C62.6239 50.4704 62.7917 50.3253 62.9899 50.3253H63.3236C64.1942 50.3253 65.017 50.3253 65.4414 50.8256C65.6947 51.1243 65.7718 51.5678 65.6751 52.1806ZM79.5393 52.1247H77.2305C77.032 52.1247 76.8635 52.2697 76.8338 52.4668L76.7316 53.1178L76.5694 52.8819C76.0692 52.1503 74.9547 51.9059 73.8414 51.9059C71.2881 51.9059 69.1083 53.8543 68.6835 56.5875C68.4635 57.9507 68.7759 59.2543 69.5435 60.1635C70.249 60.9994 71.2551 61.3477 72.4536 61.3477C74.5107 61.3477 75.6514 60.0148 75.6514 60.0148L75.5485 60.6619C75.5097 60.9092 75.6987 61.1309 75.9465 61.1309H78.0268C78.3562 61.1309 78.6369 60.8892 78.6885 60.5602L79.9379 52.5924C79.9761 52.3474 79.7871 52.1247 79.5393 52.1247ZM76.319 56.6556C76.0973 57.9855 75.0484 58.8783 73.7121 58.8783C73.0425 58.8783 72.5052 58.6615 72.1608 58.2507C71.8193 57.8428 71.691 57.2618 71.7984 56.6151C72.0076 55.2964 73.0716 54.3747 74.3873 54.3747C75.0435 54.3747 75.5766 54.5941 75.9282 55.0085C76.2815 55.4273 76.4212 56.0115 76.319 56.6556Z" fill="#179BD7"/>
<path d="M48.5595 43.1686L49.1527 39.3726L47.8315 39.3417H41.5225L45.9069 11.3297C45.9203 11.2451 45.9647 11.1663 46.0294 11.1103C46.094 11.0543 46.1769 11.0234 46.2631 11.0234H56.9011C60.4329 11.0234 62.8699 11.7639 64.1425 13.2255C64.739 13.9111 65.119 14.6276 65.3028 15.4161C65.4954 16.2435 65.499 17.2319 65.3106 18.4375L65.2969 18.5255V19.298L65.8937 19.6386C66.3961 19.9071 66.7951 20.2145 67.1013 20.5665C67.6119 21.1527 67.942 21.8977 68.0814 22.7811C68.2254 23.6896 68.1777 24.7706 67.942 25.9945C67.6697 27.4023 67.2296 28.6285 66.6354 29.6318C66.0886 30.5563 65.3923 31.3229 64.5656 31.9173C63.7762 32.4818 62.8383 32.9104 61.7779 33.1847C60.7502 33.4541 59.5788 33.5903 58.2938 33.5903H57.4659C56.874 33.5903 56.2988 33.8051 55.8476 34.1903C55.3951 34.5834 55.0954 35.1203 55.0037 35.7078L54.9413 36.0495L53.8934 42.74L53.8457 42.9857C53.8333 43.0637 53.8117 43.1025 53.7801 43.1288C53.7517 43.1525 53.7109 43.1686 53.671 43.1686H48.5595Z" fill="#253B80"/>
<path d="M66.4587 18.6143C66.427 18.8188 66.3908 19.0279 66.35 19.2427C64.9468 26.5003 60.1474 29.0075 54.0173 29.0075H50.8962C50.1466 29.0075 49.5149 29.556 49.398 30.301L47.8 40.5127L47.3475 43.4071C47.2714 43.8962 47.6459 44.3373 48.1356 44.3373H53.6715C54.3271 44.3373 54.8837 43.8574 54.9869 43.2061L55.0414 42.9225L56.0838 36.258L56.1507 35.8926C56.2526 35.239 56.8105 34.759 57.4661 34.759H58.294C63.6572 34.759 67.856 32.5649 69.0832 26.2158C69.5957 23.5634 69.3303 21.3488 67.9738 19.7913C67.5634 19.3216 67.0541 18.9319 66.4587 18.6143Z" fill="#179BD7"/>
<path d="M64.9904 18.0259C64.7762 17.9631 64.5549 17.9059 64.328 17.8545C64.1001 17.8042 63.8663 17.7597 63.6261 17.7208C62.7844 17.5837 61.8625 17.5186 60.8746 17.5186H52.5365C52.3312 17.5186 52.1363 17.5654 51.9616 17.65C51.5771 17.8362 51.2914 18.2031 51.2222 18.6521L49.4481 29.9721L49.3972 30.3024C49.5141 29.5573 50.1458 29.0088 50.8954 29.0088H54.0164C60.1465 29.0088 64.9463 26.5005 66.3491 19.2441C66.3909 19.0292 66.4262 18.8201 66.4578 18.6156C66.103 18.4259 65.7184 18.2636 65.3044 18.1253C65.2026 18.0911 65.0971 18.0579 64.9904 18.0259Z" fill="#222D65"/>
<path d="M51.2222 18.6515C51.2914 18.2024 51.5774 17.8355 51.9617 17.6504C52.1376 17.5658 52.3315 17.519 52.5366 17.519H60.8749C61.8628 17.519 62.7848 17.5841 63.6261 17.7213C63.8667 17.7601 64.1004 17.8047 64.3283 17.8549C64.5552 17.9064 64.7762 17.9635 64.9907 18.0264C65.0971 18.0584 65.2026 18.0915 65.3057 18.1247C65.7197 18.2629 66.1043 18.4263 66.4592 18.6149C66.8767 15.9329 66.4559 14.1068 65.0168 12.4532C63.4302 10.6329 60.5664 9.85352 56.9021 9.85352H46.2638C45.5152 9.85352 44.8769 10.402 44.7611 11.1482L40.3302 39.4482C40.2427 40.008 40.6714 40.5133 41.2316 40.5133H47.7995L49.4485 29.9714L51.2222 18.6515Z" fill="#253B80"/>
</svg>
