<svg width="63" height="56" viewBox="0 0 63 56" fill="none" xmlns="http://www.w3.org/2000/svg">
<path fill-rule="evenodd" clip-rule="evenodd" d="M7.70448 38.6279H2.87982C2.54967 38.6279 2.26887 38.8697 2.21739 39.198L0.266048 51.6638C0.227263 51.9099 0.416323 52.1316 0.66395 52.1316H2.96729C3.29745 52.1316 3.57824 51.8898 3.62972 51.5609L4.15603 48.1987C4.20679 47.8694 4.48827 47.628 4.81775 47.628H6.34507C9.52324 47.628 11.3573 46.0783 11.8366 43.0075C12.0524 41.6641 11.8457 40.6085 11.2212 39.869C10.5356 39.0575 9.3192 38.6279 7.70448 38.6279ZM8.26111 43.1809C7.99732 44.9253 6.67454 44.9253 5.39553 44.9253H4.66747L5.17823 41.6674C5.20856 41.4707 5.37787 41.3256 5.57541 41.3256H5.9091C6.78035 41.3256 7.6023 41.3256 8.02704 41.826C8.28005 42.1246 8.35775 42.5681 8.26111 43.1809ZM22.1266 43.125H19.8162C19.6193 43.125 19.4492 43.27 19.4188 43.4671L19.3167 44.1181L19.1551 43.8822C18.6549 43.1506 17.5397 42.9062 16.4264 42.9062C13.8731 42.9062 11.6926 44.8546 11.2679 47.5878C11.0472 48.951 11.3609 50.2546 12.1285 51.1638C12.8327 51.9997 13.8401 52.348 15.0386 52.348C17.0957 52.348 18.2367 51.0151 18.2367 51.0151L18.1335 51.6622C18.0947 51.9095 18.2837 52.1312 18.5299 52.1312H20.6111C20.9422 52.1312 21.2213 51.8895 21.2735 51.5605L22.5223 43.5927C22.5618 43.3477 22.3734 43.125 22.1266 43.125ZM18.906 47.6559C18.683 48.9858 17.6353 49.8786 16.2994 49.8786C15.6285 49.8786 15.0922 49.6618 14.7481 49.251C14.4066 48.8431 14.2766 48.2622 14.3853 47.6155C14.5936 46.2967 15.6589 45.375 16.9746 45.375C17.6305 45.375 18.1639 45.5944 18.5152 46.0089C18.8671 46.4276 19.0068 47.0118 18.906 47.6559ZM32.1097 43.1247H34.4315C34.7567 43.1247 34.9464 43.4921 34.7616 43.7608L27.0396 54.9918C26.9146 55.1737 26.7086 55.2819 26.4885 55.2819H24.1696C23.8432 55.2819 23.6525 54.9115 23.8415 54.6421L26.246 51.2224L23.6887 43.6605C23.6003 43.3977 23.7929 43.1247 24.0704 43.1247H26.3517C26.6482 43.1247 26.9097 43.3207 26.9952 43.6066L28.3524 48.1737L31.5547 43.421C31.6801 43.2355 31.8883 43.1247 32.1097 43.1247Z" fill="#253B80"/>
<path fill-rule="evenodd" clip-rule="evenodd" d="M57.2827 51.6635L59.2627 38.9697C59.2931 38.7727 59.4625 38.6276 59.6594 38.627H61.8885C62.1346 38.627 62.3237 38.8493 62.2848 39.0954L60.3322 51.5605C60.2813 51.8895 60.0005 52.1313 59.6698 52.1313H57.679C57.4328 52.1313 57.2438 51.9096 57.2827 51.6635ZM42.1185 38.6276H37.2929C36.9635 38.6276 36.6828 38.8694 36.6312 39.1977L34.6799 51.6635C34.641 51.9096 34.8301 52.1313 35.0765 52.1313H37.5525C37.7826 52.1313 37.9795 51.9622 38.0154 51.7319L38.5691 48.1984C38.62 47.8691 38.9015 47.6276 39.2309 47.6276H40.7574C43.9363 47.6276 45.77 46.078 46.2496 43.0072C46.4661 41.6638 46.2581 40.6082 45.6339 39.8687C44.9486 39.0572 43.7332 38.6276 42.1185 38.6276ZM42.6751 43.1806C42.412 44.925 41.0891 44.925 39.8094 44.925H39.082L39.5936 41.6671C39.6239 41.4704 39.7917 41.3253 39.9899 41.3253H40.3236C41.1942 41.3253 42.017 41.3253 42.4414 41.8256C42.6947 42.1243 42.7718 42.5678 42.6751 43.1806ZM56.5393 43.1247H54.2305C54.032 43.1247 53.8635 43.2697 53.8338 43.4668L53.7317 44.1178L53.5694 43.8819C53.0692 43.1503 51.9547 42.9059 50.8414 42.9059C48.2881 42.9059 46.1083 44.8543 45.6835 47.5875C45.4635 48.9507 45.7759 50.2543 46.5435 51.1635C47.249 51.9994 48.2551 52.3477 49.4536 52.3477C51.5107 52.3477 52.6514 51.0148 52.6514 51.0148L52.5485 51.6619C52.5097 51.9092 52.6987 52.1309 52.9465 52.1309H55.0268C55.3562 52.1309 55.6369 51.8892 55.6885 51.5602L56.9379 43.5924C56.9761 43.3474 56.7871 43.1247 56.5393 43.1247ZM53.319 47.6556C53.0973 48.9855 52.0484 49.8783 50.7121 49.8783C50.0425 49.8783 49.5052 49.6615 49.1608 49.2507C48.8193 48.8428 48.691 48.2618 48.7984 47.6151C49.0076 46.2964 50.0716 45.3747 51.3873 45.3747C52.0435 45.3747 52.5766 45.5941 52.9282 46.0085C53.2815 46.4273 53.4212 47.0115 53.319 47.6556Z" fill="#179BD7"/>
<path d="M25.5595 34.1686L26.1527 30.3726L24.8315 30.3417H18.5225L22.9069 2.32969C22.9203 2.24512 22.9647 2.16627 23.0294 2.11028C23.094 2.05429 23.1769 2.02344 23.2631 2.02344H33.9011C37.4329 2.02344 39.8699 2.76393 41.1425 4.22548C41.739 4.91114 42.119 5.62762 42.3028 6.41611C42.4954 7.24348 42.499 8.23194 42.3106 9.43753L42.2969 9.52553V10.298L42.8937 10.6386C43.3961 10.9071 43.7951 11.2145 44.1013 11.5665C44.6119 12.1527 44.942 12.8977 45.0814 13.7811C45.2254 14.6896 45.1777 15.7706 44.942 16.9945C44.6697 18.4023 44.2296 19.6285 43.6354 20.6318C43.0886 21.5563 42.3923 22.3229 41.5656 22.9173C40.7762 23.4818 39.8383 23.9104 38.7779 24.1847C37.7502 24.4541 36.5788 24.5903 35.2938 24.5903H34.4659C33.874 24.5903 33.2988 24.8051 32.8476 25.1903C32.3951 25.5834 32.0954 26.1203 32.0037 26.7078L31.9413 27.0495L30.8934 33.74L30.8457 33.9857C30.8333 34.0637 30.8117 34.1025 30.7801 34.1288C30.7517 34.1525 30.7109 34.1686 30.671 34.1686H25.5595Z" fill="#253B80"/>
<path d="M43.4587 9.61426C43.427 9.8188 43.3908 10.0279 43.35 10.2427C41.9468 17.5003 37.1474 20.0075 31.0173 20.0075H27.8962C27.1466 20.0075 26.5149 20.556 26.398 21.301L24.8 31.5127L24.3475 34.4071C24.2714 34.8962 24.6459 35.3373 25.1356 35.3373H30.6715C31.3271 35.3373 31.8837 34.8574 31.9869 34.2061L32.0414 33.9225L33.0838 27.258L33.1507 26.8926C33.2526 26.239 33.8105 25.759 34.4661 25.759H35.294C40.6572 25.759 44.856 23.5649 46.0832 17.2158C46.5957 14.5634 46.3303 12.3488 44.9738 10.7913C44.5634 10.3216 44.0541 9.93192 43.4587 9.61426Z" fill="#179BD7"/>
<path d="M41.9904 9.02592C41.7762 8.96306 41.5549 8.90592 41.328 8.85451C41.1001 8.80425 40.8663 8.75967 40.6261 8.72083C39.7844 8.58369 38.8625 8.51855 37.8746 8.51855H29.5365C29.3312 8.51855 29.1363 8.5654 28.9616 8.64997C28.5771 8.83622 28.2914 9.20306 28.2222 9.65214L26.4481 20.9721L26.3972 21.3024C26.5141 20.5573 27.1458 20.0088 27.8954 20.0088H31.0164C37.1465 20.0088 41.9463 17.5005 43.3491 10.2441C43.3909 10.0292 43.4262 9.82014 43.4578 9.6156C43.103 9.42589 42.7184 9.26362 42.3044 9.12533C42.2026 9.09106 42.0971 9.05793 41.9904 9.02592Z" fill="#222D65"/>
<path d="M28.2222 9.65146C28.2914 9.20235 28.5774 8.83554 28.9617 8.65041C29.1376 8.56584 29.3315 8.51899 29.5366 8.51899H37.8749C38.8628 8.51899 39.7848 8.58413 40.6261 8.72126C40.8667 8.76011 41.1004 8.80468 41.3283 8.85495C41.5552 8.9064 41.7762 8.96353 41.9907 9.02636C42.0971 9.05837 42.2026 9.0915 42.3057 9.12465C42.7197 9.26291 43.1043 9.42633 43.4592 9.61489C43.8767 6.93287 43.4559 5.10678 42.0168 3.45323C40.4302 1.63286 37.5664 0.853516 33.9021 0.853516H23.2638C22.5152 0.853516 21.8769 1.402 21.7611 2.14822L17.3302 30.4482C17.2427 31.008 17.6714 31.5133 18.2316 31.5133H24.7995L26.4485 20.9714L28.2222 9.65146Z" fill="#253B80"/>
</svg>
