<svg width="108" height="75" viewBox="0 0 108 75" fill="none" xmlns="http://www.w3.org/2000/svg">
<rect x="0.5" y="0.5" width="107" height="74" rx="9.5" fill="white" stroke="#D9D9D9"/>
<path d="M33.4113 15.6318H50.4314C52.8073 15.6318 54.285 17.593 53.7307 20.0071L45.8067 54.4614C45.2474 56.8671 42.8687 58.8299 40.4912 58.8299H23.4727C21.1002 58.8299 19.6192 56.8671 20.1734 54.4614L28.1008 20.0071C28.655 17.593 31.0325 15.6318 33.4113 15.6318Z" fill="#E21836"/>
<path d="M49.0142 15.625H68.5869C70.9624 15.625 69.8912 17.5862 69.3324 20.0003L61.4096 54.4545C60.8537 56.8602 61.0271 58.8231 58.6467 58.8231H39.074C36.6936 58.8231 35.2204 56.8602 35.7796 54.4545L43.7021 20.0003C44.2646 17.5862 46.6371 15.625 49.0142 15.625Z" fill="#00447C"/>
<path d="M67.8108 15.625H84.8309C87.2101 15.625 88.6878 17.5862 88.129 20.0003L80.2062 54.4545C79.6469 56.8602 77.2665 58.8231 74.8878 58.8231H57.8755C55.4951 58.8231 54.0187 56.8602 54.5762 54.4545L62.5003 20.0003C63.0545 17.5862 65.4304 15.625 67.8108 15.625Z" fill="#007B84"/>
<path d="M37.8555 26.6663C36.1052 26.6844 35.5883 26.6663 35.4232 26.6268C35.3598 26.9322 34.1787 32.4499 34.1754 32.4545C33.921 33.5708 33.736 34.3665 33.1075 34.8803C32.7508 35.179 32.3342 35.3231 31.8514 35.3231C31.0752 35.3231 30.623 34.9328 30.5471 34.1926L30.5325 33.9384C30.5325 33.9384 30.769 32.4431 30.769 32.4347C30.769 32.4347 32.0086 27.4066 32.2305 26.7419C32.2421 26.7041 32.2455 26.6844 32.2484 26.6663C29.8356 26.6877 29.4079 26.6663 29.3784 26.6268C29.3622 26.681 29.3025 26.9927 29.3025 26.9927L28.0368 32.6599L27.9281 33.1406L27.7178 34.7127C27.7178 35.179 27.8082 35.5597 27.9883 35.8815C28.5649 36.902 30.2098 37.0549 31.1403 37.0549C32.3392 37.0549 33.4639 36.797 34.2239 36.326C35.5431 35.5366 35.8883 34.3026 36.1961 33.2061L36.3388 32.6435C36.3388 32.6435 37.6157 27.4213 37.8327 26.7419C37.841 26.7041 37.8443 26.6844 37.8555 26.6663ZM42.2001 30.8791C41.8923 30.8791 41.3298 30.9548 40.8245 31.2056C40.6411 31.301 40.4677 31.411 40.2847 31.5207L40.4499 30.917L40.3594 30.8153C39.2879 31.035 39.0481 31.0644 38.0582 31.2056L37.9753 31.2615C37.8604 32.2265 37.7583 32.9521 37.3322 34.849C37.17 35.5481 37.0016 36.2539 36.8328 36.9513L36.8784 37.04C37.8927 36.9858 38.2005 36.9858 39.0821 37.0005L39.1534 36.9219C39.2655 36.3409 39.28 36.2048 39.5281 35.028C39.6446 34.47 39.8877 33.2441 40.0076 32.8076C40.2279 32.7042 40.4453 32.6025 40.6527 32.6025C41.1468 32.6025 41.0867 33.039 41.0676 33.213C41.0464 33.505 40.8664 34.4587 40.6818 35.2775L40.5585 35.806C40.4727 36.1963 40.3785 36.5757 40.2926 36.9627L40.33 37.04C41.3298 36.9858 41.6347 36.9858 42.4884 37.0005L42.5888 36.9219C42.7432 36.0144 42.7884 35.7716 43.0622 34.4503L43.1999 33.8432C43.4675 32.655 43.6019 32.0526 43.3994 31.5619C43.1854 31.0119 42.6718 30.8791 42.2001 30.8791ZM47.0535 32.1231C46.5221 32.2265 46.1832 32.2954 45.8463 32.3399C45.5124 32.3941 45.1867 32.4433 44.6731 32.5155L44.6325 32.5529L44.5951 32.5827C44.5416 32.9701 44.5043 33.305 44.4333 33.6986C44.3732 34.1057 44.2807 34.5683 44.1301 35.2329C44.0135 35.7417 43.9534 35.919 43.887 36.098C43.8223 36.277 43.7509 36.4509 43.6198 36.9513L43.6505 36.9975L43.6762 37.0399C44.1562 37.0168 44.4703 37.0004 44.793 36.9975C45.1154 36.9857 45.4493 36.9975 45.9662 37.0004L46.0114 36.963L46.06 36.9219C46.1346 36.4707 46.1458 36.3492 46.1915 36.1291C46.2367 35.893 46.3147 35.5661 46.5059 34.6931C46.5964 34.283 46.6972 33.8742 46.7909 33.4558C46.8884 33.039 46.9905 32.6285 47.0876 32.2185L47.073 32.1689L47.0535 32.1231ZM47.0649 30.4459C46.582 30.1572 45.7344 30.2488 45.164 30.6475C44.5953 31.0382 44.5305 31.5928 45.0118 31.8852C45.4864 32.1659 46.3372 32.0823 46.9027 31.6802C47.4702 31.2811 47.5411 30.7316 47.0649 30.4459ZM49.9852 37.1304C50.9622 37.1304 51.9636 36.8577 52.7174 36.0485C53.2974 35.3923 53.5633 34.4159 53.6554 34.0138C53.9553 32.6812 53.7218 32.059 53.4285 31.68C52.9829 31.1023 52.1955 30.917 51.3787 30.917C50.8875 30.917 49.7176 30.9662 48.8037 31.8195C48.1474 32.435 47.8442 33.2702 47.6612 34.071C47.4766 34.8869 47.2642 36.3557 48.5979 36.9023C49.0095 37.0812 49.6027 37.1304 49.9852 37.1304ZM49.9089 34.1319C50.1341 33.1227 50.4001 32.2758 51.0788 32.2758C51.6106 32.2758 51.6492 32.906 51.4127 33.9185C51.3704 34.1432 51.1763 34.9789 50.9137 35.3347C50.7303 35.5973 50.5133 35.7566 50.2735 35.7566C50.2022 35.7566 49.7778 35.7566 49.7712 35.1184C49.7678 34.8033 49.8313 34.4814 49.9089 34.1319ZM56.0976 37.0006L56.174 36.922C56.2822 36.341 56.3001 36.2045 56.5399 35.0281C56.6598 34.4701 56.9078 33.2442 57.0244 32.8077C57.2451 32.7039 57.4588 32.6022 57.6728 32.6022C58.1636 32.6022 58.1039 33.0388 58.0844 33.2127C58.0665 33.5051 57.8865 34.4584 57.6985 35.2772L57.582 35.8057C57.4928 36.1965 57.3957 36.5754 57.3098 36.9628L57.3472 37.0401C58.3503 36.9859 58.6436 36.9859 59.5023 37.0006L59.606 36.922C59.7566 36.0141 59.7973 35.7713 60.0794 34.4504L60.2138 33.8429C60.4826 32.6548 60.6187 32.0527 60.4196 31.562C60.1993 31.012 59.6824 30.8793 59.2173 30.8793C58.9091 30.8793 58.3436 30.9545 57.8413 31.2057C57.6616 31.3011 57.4816 31.4107 57.3049 31.5208L57.4588 30.9171L57.3762 30.815C56.3051 31.0351 56.0603 31.0645 55.0717 31.2057L54.9958 31.2616C54.8759 32.2266 54.7784 32.9518 54.3524 34.8491C54.1901 35.5482 54.0217 36.254 53.8533 36.9515L53.8985 37.0401C54.9145 36.9859 55.2177 36.9859 56.0976 37.0006ZM63.4677 37.0399C63.5307 36.7282 63.9053 34.8804 63.9087 34.8804C63.9087 34.8804 64.2277 33.5246 64.2472 33.4755C64.2472 33.4755 64.3476 33.3343 64.448 33.2784H64.5957C65.9891 33.2784 67.5627 33.2784 68.796 32.3596C69.6353 31.7294 70.209 30.7988 70.465 29.6678C70.5314 29.3905 70.5803 29.0607 70.5803 28.7309C70.5803 28.2978 70.4944 27.8692 70.2463 27.5344C69.6174 26.6433 68.365 26.6269 66.9192 26.6202C66.9147 26.6202 66.2065 26.6269 66.2065 26.6269C64.3559 26.65 63.6137 26.6433 63.3088 26.6055C63.2831 26.742 63.2345 26.9848 63.2345 26.9848C63.2345 26.9848 62.5716 30.0964 62.5716 30.1014C62.5716 30.1014 60.9852 36.7168 60.9105 37.0285C62.5264 37.0088 63.1889 37.0088 63.4677 37.0399ZM64.6961 31.5126C64.6961 31.5126 65.4009 28.4074 65.3976 28.4192L65.4204 28.26L65.4303 28.1385L65.712 28.1679C65.712 28.1679 67.1657 28.2944 67.1997 28.2978C67.7734 28.5225 68.0099 29.1019 67.8448 29.8581C67.6942 30.5493 67.2515 31.1303 66.6828 31.4109C66.2144 31.6487 65.6407 31.6685 65.0495 31.6685H64.667L64.6961 31.5126ZM69.0845 34.1894C68.8983 34.9935 68.6842 36.4623 70.0113 36.9858C70.4344 37.1682 70.8136 37.2224 71.199 37.2026C71.606 37.1803 71.9831 36.9736 72.3324 36.6762C72.3009 36.7984 72.2693 36.9207 72.2378 37.0434L72.298 37.1219C73.2525 37.0812 73.5487 37.0812 74.583 37.0892L74.6767 37.0169C74.8277 36.1178 74.97 35.2448 75.3625 33.5248C75.5537 32.7009 75.7445 31.885 75.9408 31.0645L75.9101 30.9741C74.8422 31.1745 74.5568 31.2174 73.5297 31.3649L73.4517 31.4291C73.4413 31.5127 73.4305 31.593 73.4205 31.6732C73.2608 31.4119 73.0293 31.1888 72.6722 31.0498C72.2154 30.8678 71.1426 31.1023 70.2204 31.9526C69.5724 32.5597 69.2612 33.3916 69.0845 34.1894ZM71.3272 34.2386C71.5558 33.2475 71.8184 32.4089 72.4987 32.4089C72.9289 32.4089 73.1555 32.811 73.1094 33.4966C73.0729 33.6676 73.0335 33.8478 72.9866 34.0516C72.9186 34.3461 72.8447 34.6381 72.773 34.9305C72.7 35.1305 72.6149 35.3192 72.5216 35.4448C72.3465 35.696 71.93 35.8519 71.6902 35.8519C71.6222 35.8519 71.2023 35.8519 71.1878 35.225C71.1845 34.9129 71.248 34.5915 71.3272 34.2386ZM83.0387 30.9661L82.9561 30.8707C81.8995 31.0875 81.7082 31.122 80.7375 31.2547L80.6661 31.327C80.6628 31.3388 80.6599 31.3568 80.6549 31.3732L80.6516 31.3568C79.9289 33.0454 79.9501 32.6811 79.3618 34.0104C79.3585 33.9499 79.3585 33.9121 79.3552 33.8478L79.2079 30.9661L79.1154 30.8707C78.0086 31.0875 77.9825 31.122 76.9603 31.2547L76.8806 31.327C76.8694 31.3615 76.8694 31.3993 76.8628 31.4404L76.8694 31.4551C76.9972 32.1164 76.9665 31.969 77.0947 33.0126C77.1544 33.5247 77.2341 34.0398 77.2938 34.5456C77.3946 35.3922 77.451 35.809 77.5742 37.1009C76.8839 38.2546 76.7205 38.6911 76.0559 39.7036L76.0605 39.7137L75.5925 40.4632C75.539 40.5422 75.4905 40.5964 75.4224 40.6195C75.3477 40.6569 75.2507 40.6636 75.1158 40.6636H74.8566L74.4712 41.9618L75.7933 41.9849C76.5695 41.9816 77.0573 41.614 77.3199 41.1199L78.1513 39.6772H78.138L78.2256 39.5755C78.7848 38.3563 83.0387 30.9661 83.0387 30.9661ZM69.0845 48.0162H68.5236L70.5995 41.0625H71.2882L71.5068 40.3462L71.528 41.1428C71.5022 41.6352 71.8847 42.0717 72.8895 41.9994H74.0515L74.4514 40.6605H74.0142C73.7628 40.6605 73.6462 40.5962 73.6607 40.4584L73.6395 39.6479H71.4877V39.6522C70.792 39.6669 68.7144 39.7198 68.2938 39.8332C67.7847 39.966 67.2483 40.3567 67.2483 40.3567L67.4591 39.6395H65.4462L65.0268 41.0625L62.9231 48.1225H62.5149L62.1146 49.4518H66.1237L65.9893 49.895H67.9648L68.0959 49.4518H68.6501L69.0845 48.0162ZM67.4396 42.4754C67.1173 42.5658 66.5174 42.8397 66.5174 42.8397L67.0509 41.0625H68.6501L68.2643 42.3574C68.2643 42.3574 67.7702 42.3868 67.4396 42.4754ZM67.4703 45.0143C67.4703 45.0143 66.9679 45.0782 66.6373 45.1538C66.3116 45.2538 65.701 45.5689 65.701 45.5689L66.2519 43.7195H67.8594L67.4703 45.0143ZM66.5742 48.0325H64.97L65.435 46.4717H67.0343L66.5742 48.0325ZM70.4376 43.7195H72.7499L72.4176 44.8093H70.0746L69.7228 46.0008H71.773L70.2206 48.2145C70.1119 48.3771 70.0144 48.4346 69.9061 48.4804C69.7974 48.5363 69.6547 48.6018 69.4896 48.6018H68.9209L68.5301 49.9068H70.0177C70.791 49.9068 71.2478 49.5505 71.585 49.0829L72.6495 47.6074L72.8781 49.1056C72.9267 49.3862 73.1258 49.5505 73.2606 49.6143C73.4096 49.69 73.5635 49.8198 73.7808 49.8391C74.014 49.8492 74.1824 49.8572 74.2944 49.8572H75.0254L75.4643 48.3968H75.176C75.0105 48.3968 74.7255 48.3687 74.6769 48.3161C74.6284 48.2523 74.6284 48.154 74.6023 48.0044L74.3703 46.5028H73.4208L73.8373 46.0008H76.1758L76.5355 44.8093H74.3703L74.7076 43.7195H76.8661L77.2664 42.3755H70.8313L70.4376 43.7195ZM50.9071 48.336L51.4468 46.5177H53.665L54.0703 45.1653H51.8501L52.189 44.046H54.3587L54.7607 42.7365H49.3319L48.9382 44.046H50.1716L49.8426 45.1653H48.6059L48.196 46.5408H49.429L48.7096 48.9465C48.6126 49.2649 48.7553 49.3863 48.8457 49.5342C48.9382 49.6783 49.032 49.7737 49.2427 49.8279C49.4601 49.8771 49.609 49.9065 49.8115 49.9065H52.3122L52.7577 48.4083L51.6493 48.5625C51.4352 48.5625 50.8424 48.5364 50.9071 48.336ZM51.1615 39.6314L50.5994 40.6603C50.4791 40.885 50.3708 41.0245 50.2733 41.0888C50.1875 41.143 50.0174 41.1657 49.7709 41.1657H49.4776L49.0856 42.482H50.0597C50.528 42.482 50.8877 42.308 51.0595 42.2211C51.2441 42.1211 51.2926 42.1782 51.4353 42.0387L51.7643 41.7501H54.806L55.2096 40.3796H52.9831L53.3719 39.6314H51.1615ZM55.652 48.3624C55.6002 48.2868 55.6375 48.1536 55.7168 47.8763L56.5481 45.0896H59.5056C59.9366 45.0833 60.2478 45.0783 60.4502 45.0635C60.6676 45.0404 60.9041 44.9619 61.1617 44.8207C61.4276 44.6728 61.5637 44.517 61.6786 44.338C61.8068 44.1594 62.0126 43.7687 62.1893 43.1662L63.2343 39.6396L60.1652 39.6577C60.1652 39.6577 59.2202 39.7989 58.8041 39.9547C58.3843 40.1287 57.7844 40.6143 57.7844 40.6143L58.0615 39.6476H56.1656L53.5114 48.5624C53.4172 48.9086 53.3542 49.1598 53.3397 49.3107C53.3347 49.4733 53.5421 49.6342 53.6765 49.7556C53.8354 49.877 54.0702 49.8573 54.2955 49.877C54.5324 49.8951 54.8692 49.9064 55.3343 49.9064H56.7912L57.2384 48.3771L55.9341 48.5019C55.7948 48.5019 55.6939 48.4263 55.652 48.3624ZM57.0845 43.2074H60.1909L59.9935 43.8342C59.9657 43.8489 59.8993 43.8032 59.5832 43.841H56.8933L57.0845 43.2074ZM57.7068 41.1051H60.8393L60.6141 41.86C60.6141 41.86 59.1376 41.8453 58.9012 41.8894C57.8607 42.0718 57.253 42.6348 57.253 42.6348L57.7068 41.1051ZM60.063 45.9333C60.0373 46.027 59.9966 46.0842 59.9398 46.127C59.8767 46.1682 59.7747 46.1829 59.6224 46.1829H59.1798L59.2059 45.4195H57.3648L57.2901 49.1516C57.2872 49.4209 57.3129 49.5767 57.5075 49.7015C57.7021 49.8574 58.3015 49.8771 59.1084 49.8771H60.2621L60.6786 48.4802L59.6743 48.5361L59.3403 48.5558C59.2947 48.5361 59.2511 48.518 59.2026 48.4689C59.1603 48.4264 59.0889 48.4525 59.1005 48.1832L59.1084 47.2265L60.1617 47.1824C60.7305 47.1824 60.9736 46.995 61.181 46.8165C61.3789 46.6455 61.4436 46.4489 61.5183 46.1829L61.695 45.3359H60.2476L60.063 45.9333Z" fill="#FEFEFE"/>
</svg>
