<svg width="69" height="44" viewBox="0 0 69 44" fill="none" xmlns="http://www.w3.org/2000/svg">
<path d="M13.4113 0.631836H30.4314C32.8073 0.631836 34.285 2.59302 33.7307 5.0071L25.8067 39.4614C25.2474 41.8671 22.8687 43.8299 20.4912 43.8299H3.47271C1.10017 43.8299 -0.380848 41.8671 0.173394 39.4614L8.10079 5.0071C8.65503 2.59302 11.0325 0.631836 13.4113 0.631836Z" fill="#E21836"/>
<path d="M29.0142 0.625H48.5869C50.9624 0.625 49.8912 2.58618 49.3324 5.00027L41.4096 39.4545C40.8537 41.8602 41.0271 43.8231 38.6467 43.8231H19.074C16.6936 43.8231 15.2204 41.8602 15.7796 39.4545L23.7021 5.00027C24.2646 2.58618 26.6371 0.625 29.0142 0.625Z" fill="#00447C"/>
<path d="M47.8108 0.625H64.8309C67.2101 0.625 68.6878 2.58618 68.129 5.00027L60.2062 39.4545C59.6469 41.8602 57.2665 43.8231 54.8878 43.8231H37.8755C35.4951 43.8231 34.0187 41.8602 34.5762 39.4545L42.5003 5.00027C43.0545 2.58618 45.4304 0.625 47.8108 0.625Z" fill="#007B84"/>
<path d="M17.8555 11.6663C16.1052 11.6844 15.5883 11.6663 15.4232 11.6268C15.3598 11.9322 14.1787 17.4499 14.1754 17.4545C13.921 18.5708 13.736 19.3665 13.1075 19.8803C12.7508 20.179 12.3342 20.3231 11.8514 20.3231C11.0752 20.3231 10.623 19.9328 10.5471 19.1926L10.5325 18.9384C10.5325 18.9384 10.769 17.4431 10.769 17.4347C10.769 17.4347 12.0086 12.4066 12.2305 11.7419C12.2421 11.7041 12.2455 11.6844 12.2484 11.6663C9.83559 11.6877 9.40788 11.6663 9.37842 11.6268C9.36224 11.681 9.30251 11.9927 9.30251 11.9927L8.03679 17.6599L7.9281 18.1406L7.71777 19.7127C7.71777 20.179 7.80821 20.5597 7.98826 20.8815C8.5649 21.902 10.2098 22.0549 11.1403 22.0549C12.3392 22.0549 13.4639 21.797 14.2239 21.326C15.5431 20.5366 15.8883 19.3026 16.1961 18.2061L16.3388 17.6435C16.3388 17.6435 17.6157 12.4213 17.8327 11.7419C17.841 11.7041 17.8443 11.6844 17.8555 11.6663ZM22.2001 15.8791C21.8923 15.8791 21.3298 15.9548 20.8245 16.2056C20.6411 16.301 20.4677 16.411 20.2847 16.5207L20.4499 15.917L20.3594 15.8153C19.2879 16.035 19.0481 16.0644 18.0582 16.2056L17.9753 16.2615C17.8604 17.2265 17.7583 17.9521 17.3322 19.849C17.17 20.5481 17.0016 21.2539 16.8328 21.9513L16.8784 22.04C17.8927 21.9858 18.2005 21.9858 19.0821 22.0005L19.1534 21.9219C19.2655 21.3409 19.28 21.2048 19.5281 20.028C19.6446 19.47 19.8877 18.2441 20.0076 17.8076C20.2279 17.7042 20.4453 17.6025 20.6527 17.6025C21.1468 17.6025 21.0867 18.039 21.0676 18.213C21.0464 18.505 20.8664 19.4587 20.6818 20.2775L20.5585 20.806C20.4727 21.1963 20.3785 21.5757 20.2926 21.9627L20.33 22.04C21.3298 21.9858 21.6347 21.9858 22.4884 22.0005L22.5888 21.9219C22.7432 21.0144 22.7884 20.7716 23.0622 19.4503L23.1999 18.8432C23.4675 17.655 23.6019 17.0526 23.3994 16.5619C23.1854 16.0119 22.6718 15.8791 22.2001 15.8791ZM27.0535 17.1231C26.5221 17.2265 26.1832 17.2954 25.8463 17.3399C25.5124 17.3941 25.1867 17.4433 24.6731 17.5155L24.6325 17.5529L24.5951 17.5827C24.5416 17.9701 24.5043 18.305 24.4333 18.6986C24.3732 19.1057 24.2807 19.5683 24.1301 20.2329C24.0135 20.7417 23.9534 20.919 23.887 21.098C23.8223 21.277 23.7509 21.4509 23.6198 21.9513L23.6505 21.9975L23.6762 22.0399C24.1562 22.0168 24.4703 22.0004 24.793 21.9975C25.1154 21.9857 25.4493 21.9975 25.9662 22.0004L26.0114 21.963L26.06 21.9219C26.1346 21.4707 26.1458 21.3492 26.1915 21.1291C26.2367 20.893 26.3147 20.5661 26.5059 19.6931C26.5964 19.283 26.6972 18.8742 26.7909 18.4558C26.8884 18.039 26.9905 17.6285 27.0876 17.2185L27.073 17.1689L27.0535 17.1231ZM27.0649 15.4459C26.582 15.1572 25.7344 15.2488 25.164 15.6475C24.5953 16.0382 24.5305 16.5928 25.0118 16.8852C25.4864 17.1659 26.3372 17.0823 26.9027 16.6802C27.4702 16.2811 27.5411 15.7316 27.0649 15.4459ZM29.9852 22.1304C30.9622 22.1304 31.9636 21.8577 32.7174 21.0485C33.2974 20.3923 33.5633 19.4159 33.6554 19.0138C33.9553 17.6812 33.7218 17.059 33.4285 16.68C32.9829 16.1023 32.1955 15.917 31.3787 15.917C30.8875 15.917 29.7176 15.9662 28.8037 16.8195C28.1474 17.435 27.8442 18.2702 27.6612 19.071C27.4766 19.8869 27.2642 21.3557 28.598 21.9023C29.0095 22.0812 29.6027 22.1304 29.9852 22.1304ZM29.9089 19.1319C30.1341 18.1227 30.4001 17.2758 31.0788 17.2758C31.6106 17.2758 31.6492 17.9059 31.4127 18.9185C31.3704 19.1432 31.1763 19.9789 30.9137 20.3347C30.7303 20.5973 30.5133 20.7566 30.2735 20.7566C30.2022 20.7566 29.7778 20.7566 29.7712 20.1184C29.7678 19.8033 29.8313 19.4814 29.9089 19.1319ZM36.0976 22.0006L36.174 21.922C36.2822 21.341 36.3001 21.2045 36.5399 20.0281C36.6598 19.4701 36.9078 18.2442 37.0244 17.8077C37.2451 17.7039 37.4588 17.6022 37.6728 17.6022C38.1636 17.6022 38.1039 18.0388 38.0844 18.2127C38.0665 18.5051 37.8865 19.4584 37.6985 20.2772L37.582 20.8057C37.4928 21.1965 37.3957 21.5754 37.3098 21.9628L37.3472 22.0401C38.3503 21.9859 38.6436 21.9859 39.5023 22.0006L39.606 21.922C39.7566 21.0141 39.7973 20.7713 40.0794 19.4504L40.2138 18.8429C40.4826 17.6548 40.6187 17.0527 40.4196 16.562C40.1993 16.012 39.6824 15.8793 39.2173 15.8793C38.9091 15.8793 38.3436 15.9545 37.8413 16.2057C37.6616 16.3011 37.4816 16.4107 37.3049 16.5208L37.4588 15.9171L37.3762 15.815C36.3051 16.0351 36.0603 16.0645 35.0717 16.2057L34.9958 16.2616C34.8759 17.2266 34.7784 17.9518 34.3524 19.8491C34.1901 20.5482 34.0217 21.254 33.8533 21.9515L33.8985 22.0401C34.9145 21.9859 35.2177 21.9859 36.0976 22.0006ZM43.4677 22.0399C43.5307 21.7282 43.9053 19.8804 43.9087 19.8804C43.9087 19.8804 44.2277 18.5246 44.2472 18.4755C44.2472 18.4755 44.3476 18.3343 44.448 18.2784H44.5957C45.9891 18.2784 47.5627 18.2784 48.796 17.3596C49.6353 16.7294 50.209 15.7988 50.465 14.6678C50.5314 14.3905 50.5803 14.0607 50.5803 13.7309C50.5803 13.2978 50.4944 12.8692 50.2464 12.5344C49.6174 11.6433 48.365 11.6269 46.9192 11.6202C46.9147 11.6202 46.2065 11.6269 46.2065 11.6269C44.3559 11.65 43.6137 11.6433 43.3088 11.6055C43.2831 11.742 43.2345 11.9848 43.2345 11.9848C43.2345 11.9848 42.5716 15.0964 42.5716 15.1014C42.5716 15.1014 40.9852 21.7168 40.9105 22.0285C42.5264 22.0088 43.1889 22.0088 43.4677 22.0399ZM44.6961 16.5126C44.6961 16.5126 45.4009 13.4074 45.3976 13.4192L45.4204 13.26L45.4303 13.1385L45.712 13.1679C45.712 13.1679 47.1657 13.2944 47.1997 13.2978C47.7734 13.5225 48.0099 14.1019 47.8448 14.8581C47.6942 15.5493 47.2515 16.1303 46.6828 16.4109C46.2144 16.6487 45.6407 16.6685 45.0495 16.6685H44.667L44.6961 16.5126ZM49.0845 19.1894C48.8983 19.9935 48.6842 21.4623 50.0113 21.9858C50.4344 22.1682 50.8136 22.2224 51.199 22.2026C51.606 22.1803 51.9831 21.9736 52.3324 21.6762C52.3009 21.7984 52.2693 21.9207 52.2378 22.0434L52.298 22.1219C53.2525 22.0812 53.5487 22.0812 54.583 22.0892L54.6767 22.0169C54.8277 21.1178 54.97 20.2448 55.3625 18.5248C55.5537 17.7009 55.7445 16.885 55.9408 16.0645L55.9101 15.9741C54.8422 16.1745 54.5568 16.2174 53.5297 16.3649L53.4517 16.4291C53.4413 16.5127 53.4305 16.593 53.4205 16.6732C53.2608 16.4119 53.0293 16.1888 52.6722 16.0498C52.2154 15.8678 51.1426 16.1023 50.2204 16.9526C49.5724 17.5597 49.2612 18.3916 49.0845 19.1894ZM51.3272 19.2386C51.5558 18.2475 51.8184 17.4089 52.4987 17.4089C52.9289 17.4089 53.1555 17.811 53.1094 18.4966C53.0729 18.6676 53.0335 18.8478 52.9866 19.0516C52.9186 19.3461 52.8447 19.6381 52.773 19.9305C52.7 20.1305 52.6149 20.3192 52.5216 20.4448C52.3465 20.696 51.93 20.8519 51.6902 20.8519C51.6222 20.8519 51.2023 20.8519 51.1878 20.225C51.1845 19.9129 51.248 19.5915 51.3272 19.2386ZM63.0387 15.9661L62.9561 15.8707C61.8995 16.0875 61.7082 16.122 60.7375 16.2547L60.6661 16.327C60.6628 16.3388 60.6599 16.3568 60.6549 16.3732L60.6516 16.3568C59.9289 18.0454 59.9501 17.6811 59.3618 19.0104C59.3585 18.9499 59.3585 18.9121 59.3552 18.8478L59.2079 15.9661L59.1154 15.8707C58.0086 16.0875 57.9825 16.122 56.9603 16.2547L56.8806 16.327C56.8694 16.3615 56.8694 16.3993 56.8628 16.4404L56.8694 16.4551C56.9972 17.1164 56.9665 16.969 57.0947 18.0126C57.1544 18.5247 57.2341 19.0398 57.2938 19.5456C57.3946 20.3922 57.451 20.809 57.5742 22.1009C56.8839 23.2546 56.7205 23.6911 56.0559 24.7036L56.0605 24.7137L55.5925 25.4632C55.539 25.5422 55.4905 25.5964 55.4224 25.6195C55.3477 25.6569 55.2507 25.6636 55.1158 25.6636H54.8566L54.4712 26.9618L55.7933 26.9849C56.5695 26.9816 57.0573 26.614 57.3199 26.1199L58.1513 24.6772H58.138L58.2256 24.5755C58.7848 23.3563 63.0387 15.9661 63.0387 15.9661ZM49.0845 33.0162H48.5236L50.5995 26.0625H51.2882L51.5068 25.3462L51.528 26.1428C51.5022 26.6352 51.8847 27.0717 52.8895 26.9994H54.0515L54.4514 25.6605H54.0142C53.7628 25.6605 53.6462 25.5962 53.6607 25.4584L53.6395 24.6479H51.4877V24.6522C50.792 24.6669 48.7144 24.7198 48.2938 24.8332C47.7847 24.966 47.2483 25.3567 47.2483 25.3567L47.4591 24.6395H45.4462L45.0268 26.0625L42.9231 33.1225H42.5149L42.1146 34.4518H46.1237L45.9893 34.895H47.9648L48.0959 34.4518H48.6501L49.0845 33.0162ZM47.4396 27.4754C47.1173 27.5658 46.5174 27.8397 46.5174 27.8397L47.0509 26.0625H48.6501L48.2643 27.3574C48.2643 27.3574 47.7702 27.3868 47.4396 27.4754ZM47.4703 30.0143C47.4703 30.0143 46.9679 30.0782 46.6373 30.1538C46.3116 30.2538 45.701 30.5689 45.701 30.5689L46.2519 28.7195H47.8594L47.4703 30.0143ZM46.5742 33.0325H44.97L45.435 31.4717H47.0343L46.5742 33.0325ZM50.4376 28.7195H52.7499L52.4176 29.8093H50.0746L49.7228 31.0008H51.773L50.2206 33.2145C50.1119 33.3771 50.0144 33.4346 49.9061 33.4804C49.7974 33.5363 49.6547 33.6018 49.4896 33.6018H48.9209L48.5301 34.9068H50.0177C50.791 34.9068 51.2478 34.5505 51.585 34.0829L52.6495 32.6074L52.8781 34.1056C52.9267 34.3862 53.1258 34.5505 53.2606 34.6143C53.4096 34.69 53.5635 34.8198 53.7808 34.8391C54.014 34.8492 54.1824 34.8572 54.2944 34.8572H55.0254L55.4643 33.3968H55.176C55.0105 33.3968 54.7255 33.3687 54.6769 33.3161C54.6284 33.2523 54.6284 33.154 54.6023 33.0044L54.3703 31.5028H53.4208L53.8373 31.0008H56.1758L56.5355 29.8093H54.3703L54.7076 28.7195H56.8661L57.2664 27.3755H50.8313L50.4376 28.7195ZM30.9071 33.336L31.4468 31.5177H33.665L34.0703 30.1653H31.8501L32.189 29.046H34.3587L34.7607 27.7365H29.3319L28.9382 29.046H30.1716L29.8426 30.1653H28.6059L28.196 31.5408H29.429L28.7096 33.9465C28.6126 34.2649 28.7553 34.3863 28.8457 34.5342C28.9382 34.6783 29.032 34.7737 29.2427 34.8279C29.4601 34.8771 29.609 34.9065 29.8115 34.9065H32.3122L32.7577 33.4083L31.6493 33.5625C31.4352 33.5625 30.8424 33.5364 30.9071 33.336ZM31.1615 24.6314L30.5994 25.6603C30.4791 25.885 30.3708 26.0245 30.2733 26.0888C30.1875 26.143 30.0174 26.1657 29.7709 26.1657H29.4776L29.0856 27.482H30.0597C30.528 27.482 30.8877 27.308 31.0595 27.2211C31.2441 27.1211 31.2926 27.1782 31.4353 27.0387L31.7643 26.7501H34.806L35.2096 25.3796H32.9831L33.3719 24.6314H31.1615ZM35.652 33.3624C35.6002 33.2868 35.6375 33.1536 35.7168 32.8763L36.5481 30.0896H39.5056C39.9366 30.0833 40.2478 30.0783 40.4502 30.0635C40.6676 30.0404 40.9041 29.9619 41.1617 29.8207C41.4276 29.6728 41.5637 29.517 41.6786 29.338C41.8068 29.1594 42.0125 28.7687 42.1893 28.1662L43.2343 24.6396L40.1652 24.6577C40.1652 24.6577 39.2202 24.7989 38.8041 24.9547C38.3843 25.1287 37.7844 25.6143 37.7844 25.6143L38.0615 24.6476H36.1656L33.5114 33.5624C33.4172 33.9086 33.3542 34.1598 33.3397 34.3107C33.3347 34.4733 33.5421 34.6342 33.6765 34.7556C33.8354 34.877 34.0702 34.8573 34.2955 34.877C34.5324 34.8951 34.8692 34.9064 35.3343 34.9064H36.7912L37.2384 33.3771L35.9341 33.5019C35.7948 33.5019 35.6939 33.4263 35.652 33.3624ZM37.0845 28.2074H40.1909L39.9935 28.8342C39.9657 28.8489 39.8993 28.8032 39.5832 28.841H36.8933L37.0845 28.2074ZM37.7068 26.1051H40.8393L40.6141 26.86C40.6141 26.86 39.1376 26.8453 38.9012 26.8894C37.8607 27.0718 37.253 27.6348 37.253 27.6348L37.7068 26.1051ZM40.063 30.9333C40.0373 31.027 39.9966 31.0842 39.9398 31.127C39.8767 31.1682 39.7747 31.1829 39.6224 31.1829H39.1798L39.2059 30.4195H37.3648L37.2901 34.1516C37.2872 34.4209 37.3129 34.5767 37.5075 34.7015C37.7021 34.8574 38.3015 34.8771 39.1084 34.8771H40.2621L40.6786 33.4802L39.6743 33.5361L39.3403 33.5558C39.2947 33.5361 39.2511 33.518 39.2026 33.4689C39.1603 33.4264 39.0889 33.4525 39.1005 33.1832L39.1084 32.2265L40.1617 32.1824C40.7305 32.1824 40.9736 31.995 41.181 31.8165C41.3789 31.6455 41.4436 31.4489 41.5183 31.1829L41.695 30.3359H40.2476L40.063 30.9333Z" fill="#FEFEFE"/>
</svg>
