<svg width="108" height="75" viewBox="0 0 108 75" fill="none" xmlns="http://www.w3.org/2000/svg">
<rect x="0.5" y="0.5" width="107" height="74" rx="9.5" fill="#EBFFEB"/>
<rect x="0.5" y="0.5" width="107" height="74" rx="9.5" stroke="#5C1313"/>
<rect x="0.5" y="0.5" width="107" height="74" rx="9.5" fill="#F5FFF7" stroke="#315446"/>
<path fill-rule="evenodd" clip-rule="evenodd" d="M32.9877 50.807H26.445L21.5388 31.8512C21.3059 30.9792 20.8115 30.2083 20.0841 29.845C18.269 28.932 16.2689 28.2053 14.0869 27.8388V27.109H24.6267C26.0813 27.109 27.1723 28.2053 27.3542 29.4785L29.8998 43.152L36.4393 27.109H42.8002L32.9877 50.807ZM46.4368 50.807H40.2577L45.3458 27.109H51.5248L46.4368 50.807ZM59.519 33.6741C59.7009 32.3977 60.7918 31.6679 62.0647 31.6679C64.0648 31.4847 66.2436 31.8512 68.0619 32.7611L69.1529 27.6588C67.3345 26.929 65.3344 26.5625 63.5193 26.5625C57.5221 26.5625 53.1581 29.845 53.1581 34.4007C53.1581 37.8665 56.2493 39.6863 58.4312 40.7826C60.7918 41.8757 61.701 42.6055 61.5192 43.6986C61.5192 45.3383 59.7009 46.0681 57.8857 46.0681C55.7038 46.0681 53.5218 45.5215 51.5249 44.6085L50.4339 49.7139C52.6158 50.6238 54.9765 50.9903 57.1584 50.9903C63.883 51.1704 68.0619 47.891 68.0619 42.9688C68.0619 36.7702 59.519 36.4069 59.519 33.6741ZM89.687 50.807L84.7807 27.109H79.5108C78.4199 27.109 77.3289 27.8388 76.9652 28.932L67.8801 50.807H74.2409L75.5106 47.3444H83.3261L84.0534 50.807H89.687ZM80.4199 33.4909L82.235 42.4223H77.1469L80.4199 33.4909Z" fill="#172B85"/>
</svg>
