<svg width="76" height="25" viewBox="0 0 76 25" fill="none" xmlns="http://www.w3.org/2000/svg">
<path fill-rule="evenodd" clip-rule="evenodd" d="M18.9877 24.807H12.445L7.53877 5.85117C7.3059 4.9792 6.81145 4.20833 6.08413 3.84501C4.26901 2.93197 2.26888 2.20533 0.0869141 1.83885V1.10905H10.6267C12.0813 1.10905 13.1723 2.20533 13.3542 3.47853L15.8998 17.152L22.4393 1.10905H28.8002L18.9877 24.807ZM32.4368 24.807H26.2577L31.3458 1.10905H37.5248L32.4368 24.807ZM45.519 7.67411C45.7009 6.39774 46.7918 5.66794 48.0647 5.66794C50.0648 5.4847 52.2436 5.85118 54.0619 6.76106L55.1529 1.65878C53.3345 0.92898 51.3344 0.5625 49.5193 0.5625C43.5221 0.5625 39.1582 3.84502 39.1582 8.40075C39.1582 11.8665 42.2493 13.6863 44.4312 14.7826C46.7918 15.8757 47.701 16.6055 47.5192 17.6986C47.5192 19.3383 45.7009 20.0681 43.8857 20.0681C41.7038 20.0681 39.5218 19.5215 37.5249 18.6085L36.4339 23.7139C38.6158 24.6238 40.9765 24.9903 43.1584 24.9903C49.883 25.1704 54.0619 21.891 54.0619 16.9688C54.0619 10.7702 45.519 10.4069 45.519 7.67411V7.67411ZM75.687 24.807L70.7807 1.10905H65.5108C64.4199 1.10905 63.3289 1.83885 62.9652 2.93197L53.8801 24.807H60.2409L61.5106 21.3444H69.3261L70.0534 24.807H75.687ZM66.4199 7.49088L68.235 16.4223H63.1469L66.4199 7.49088Z" fill="#172B85"/>
</svg>
