<?xml version="1.0" encoding="UTF-8"?><svg id="a" xmlns="http://www.w3.org/2000/svg" viewBox="0 0 240.55 207.35"><defs><style>.c{fill:#f4b1a4;}</style></defs><g id="b"><path class="c" d="M92.83,142.42h-10.47c-1.5,0-2.72,1.22-2.72,2.72s1.22,2.72,2.72,2.72h10.47c1.5,0,2.72-1.22,2.72-2.72s-1.22-2.72-2.72-2.72Z"/><path class="c" d="M84.18,94.67c3.8,0,7.54,.85,10.96,2.48,.65,.31,1.44,.15,1.84-.44,3.05-4.47,7.88-7.47,13.23-8.22,1.16-.16,2.12-.95,2.53-2.04,1.95-5.2,2.89-10.69,2.79-16.35-.41-22.37-17.75-41.25-40.02-43.42-26.5-2.58-48.91,18.27-48.91,44.25,0,19.49,12.51,36.45,30.79,42.32,1.09,.35,2.26-.22,2.63-1.3,3.42-10.11,12.91-17.28,24.16-17.28Zm-4.09-34.31c2.17,0,3.94,1.77,3.94,3.94s-1.77,3.94-3.94,3.94-3.94-1.77-3.94-3.94,1.77-3.94,3.94-3.94Zm-22.99,3.94c0-2.17,1.77-3.94,3.94-3.94s3.94,1.77,3.94,3.94-1.77,3.94-3.94,3.94-3.94-1.77-3.94-3.94Zm3.29,16.32c-.41-.84-.06-1.85,.77-2.26,.83-.41,1.85-.07,2.26,.77,1.42,2.89,4.29,4.75,7.36,4.71,3.67-.04,6.88-2.68,7.81-6.44,.22-.9,1.14-1.46,2.04-1.23,.91,.22,1.46,1.14,1.23,2.04-1.3,5.25-5.84,8.95-11.05,9-.04,0-.07,0-.11,0-4.3,0-8.34-2.58-10.31-6.6Z"/><path class="c" d="M172.82,142.87c-.57-.1-1.05-.48-1.27-1.01-.23-.53-.16-1.14,.16-1.61,3.56-5.19,5.19-11.4,4.61-17.76-1.05-11.44-9.46-21.14-20.66-23.73-8.93-2.07-17.98,.44-24.51,6.5-.45,.42-1.08,.56-1.67,.37-.58-.19-1.02-.67-1.14-1.27-1.48-7.34-8.01-12.67-15.51-12.67-6.11,0-11.73,3.59-14.33,9.14-.21,.44-.59,.77-1.06,.91-.46,.14-.97,.06-1.38-.2-3.57-2.28-7.69-3.48-11.9-3.48-10.91,0-19.93,7.78-21.79,18.22-.18,.99,.39,1.99,1.35,2.32,3.8,1.3,7.33,3.34,10.38,6.06,.7,.62,.76,1.69,.14,2.38-.62,.69-1.69,.76-2.38,.14-3.47-3.09-7.65-5.18-12.12-6.17-.58-.13-1.16-.23-1.74-.33-.41-.06-.83-.13-1.24-.17h-.01c-.91-.1-1.83-.16-2.74-.16-15-.04-27.2,12.23-27.05,27.25,.15,14.69,12.89,26.69,27.58,26.69h115.15c8.64,0,16.05-6.72,16.3-15.36,.23-7.94-5.38-14.73-13.16-16.05Zm-80,8.37h-10.47c-3.36,0-6.1-2.74-6.1-6.1s2.74-6.1,6.1-6.1h10.47c3.36,0,6.1,2.74,6.1,6.1s-2.74,6.1-6.1,6.1Zm10.92-16.43c0-2.17,1.77-3.94,3.94-3.94s3.94,1.77,3.94,3.94-1.77,3.94-3.94,3.94-3.94-1.77-3.94-3.94Zm25.21,14.23c-1.32,5.35-5.96,9.13-11.27,9.18-.04,0-.08,0-.11,0-4.39,0-8.51-2.63-10.52-6.73-.41-.84-.06-1.85,.77-2.26,.84-.41,1.85-.06,2.26,.77,1.46,2.97,4.4,4.88,7.56,4.84,3.77-.04,7.07-2.76,8.03-6.62,.22-.9,1.14-1.46,2.04-1.23,.9,.22,1.46,1.14,1.23,2.04Zm-1.78-10.3c-2.17,0-3.94-1.77-3.94-3.94s1.77-3.94,3.94-3.94,3.94,1.77,3.94,3.94-1.77,3.94-3.94,3.94Zm25.18,12.5h-10.47c-3.36,0-6.1-2.74-6.1-6.1s2.74-6.1,6.1-6.1h10.47c3.36,0,6.1,2.74,6.1,6.1s-2.74,6.1-6.1,6.1Z"/><path class="c" d="M152.35,142.42h-10.47c-1.5,0-2.72,1.22-2.72,2.72s1.22,2.72,2.72,2.72h10.47c1.5,0,2.72-1.22,2.72-2.72s-1.22-2.72-2.72-2.72Z"/><path class="c" d="M126.59,60.37c-1,0-1.91-.67-2.17-1.68-.32-1.2,.4-2.43,1.6-2.75l13.54-3.58c1.2-.32,2.43,.4,2.75,1.6,.32,1.2-.4,2.43-1.6,2.75l-13.54,3.58c-.19,.05-.39,.08-.58,.08Z"/><path class="c" d="M2.25,93.01c-1,0-1.91-.67-2.17-1.68-.32-1.2,.4-2.43,1.6-2.75l13.54-3.58c1.2-.32,2.43,.4,2.75,1.6,.32,1.2-.4,2.43-1.6,2.75l-13.54,3.58c-.19,.05-.39,.08-.58,.08Z"/><path class="c" d="M56.09,18.04c-1,0-1.91-.67-2.17-1.68l-3.58-13.54c-.32-1.2,.4-2.43,1.6-2.75,1.2-.32,2.43,.4,2.75,1.6l3.58,13.54c.32,1.2-.4,2.43-1.6,2.75-.19,.05-.39,.08-.58,.08Z"/><path class="c" d="M20.66,45.69c-.38,0-.77-.1-1.13-.31l-12.1-7.04c-1.07-.62-1.44-2-.81-3.08,.62-1.07,2-1.44,3.08-.81l12.1,7.04c1.07,.62,1.44,2,.81,3.08-.42,.72-1.17,1.12-1.95,1.12Z"/><path class="c" d="M100.39,24.15c-.38,0-.77-.1-1.13-.31-1.07-.62-1.44-2-.81-3.08l7.04-12.1c.62-1.07,2-1.44,3.08-.81,1.07,.62,1.44,2,.81,3.08l-7.04,12.1c-.42,.72-1.17,1.12-1.95,1.12Z"/></g></svg>