<?xml version="1.0" encoding="UTF-8"?><svg id="a" xmlns="http://www.w3.org/2000/svg" viewBox="0 0 243.5 207.35"><defs><style>.c{fill:#f4b1a4;}</style></defs><g id="b"><path class="c" d="M210.21,67.17c-3.2-1.41-6.46-1.9-9.63-1.49-2.02,.26-3.56,1.97-3.54,4,0,.54,0,1.69,0,1.71,0,2.17,1.69,3.89,3.86,4.03,1.66,.11,3.23,.54,4.7,1.31,5.25,2.74,7.87,8.84,9.14,13.48,2.73,9.98,.66,20.94-6.15,32.59-1.88,3.21-3.97,6.37-6,9.42-5.03,7.58-9.78,14.74-11.9,23.11-2.51,9.89-.74,20.94,4.73,29.56,.56,.88,1.18,1.74,1.93,2.09,.65,.3,1.56,.29,2.46,.28l2.62-.03c2.11-.02,3.43-2.29,2.41-4.14-1.74-3.13-2.92-6.12-3.03-6.39-2.25-5.77-3.02-12.05-2.2-18.16,1.2-9.04,6.95-16.61,12.5-23.93,2.86-3.76,5.56-7.32,7.65-11.04,7.43-13.17,9.08-28.06,4.52-40.86-2.44-6.84-7.83-12.79-14.09-15.54Z"/><path class="c" d="M188.71,47.41c-3.71-2.92-10.52-1.27-20.82,1.23-4.74,1.15-10.26,2.48-16.6,3.62-.24,.1-.5,.16-.78,.14h0c-7.68,1.35-16.52,2.4-26.61,2.48-19.74,.16-34.6-3.45-45.42-6.08-6.09-1.48-10.89-2.65-14.48-2.65-2.15,0-3.86,.42-5.16,1.44-3.33,2.62-4.75,9.72-4.75,23.76,0,23.48,7.94,52.48,20.73,75.67,8.26,15,25.63,40.15,49.07,40.15,38.53,0,69.8-70.08,69.8-115.82,0-14.04-1.49-21.2-4.97-23.94Zm-110.52,53.87c-.32-.35-.47-.83-.43-1.3,.82-7.92,9.13-13.89,19.33-13.89s18.51,5.97,19.33,13.89c.05,.48-.11,.95-.43,1.3-.32,.35-.78,.56-1.25,.56h-35.31c-.48,0-.93-.2-1.25-.56Zm73.19,53.41c-.27,.3-.65,.47-1.06,.47h-52.87c-.4,0-.79-.17-1.06-.47-.27-.3-.4-.7-.36-1.1,1.15-11.11,13.38-19.81,27.85-19.81s26.7,8.7,27.85,19.81c.04,.4-.09,.8-.36,1.1Zm18.2-53.41c-.32,.35-.78,.56-1.25,.56h-35.31c-.48,0-.93-.2-1.25-.56-.32-.35-.47-.83-.43-1.3,.82-7.92,9.13-13.89,19.33-13.89s18.51,5.97,19.33,13.89c.05,.48-.11,.95-.43,1.3Z"/><path class="c" d="M50.71,71.35c0-15.59,1.69-23,6.04-26.41,4.75-3.74,11.82-2.02,22.52,.59,10.64,2.59,25.23,6.14,44.59,5.98,9.47-.07,17.83-1.02,25.15-2.27,.13-2.25,.22-4.48,.22-6.62,0-14.04-1.49-21.2-4.97-23.94-3.71-2.92-10.52-1.27-20.82,1.23-10.61,2.57-25.14,6.09-44,6.24-.42,0-.83,0-1.25,0-19.17,0-33.58-3.51-44.17-6.08-9.74-2.37-16.18-3.94-19.64-1.21-3.33,2.62-4.75,9.72-4.75,23.76,0,23.48,7.94,52.48,20.73,75.67,8.06,14.62,24.78,38.9,47.34,40.09-2.01-3.04-3.96-6.28-5.86-9.72-13.04-23.66-21.15-53.28-21.15-77.3Z"/></g></svg>