<svg width="20" height="20" viewBox="0 0 20 20" fill="none" xmlns="http://www.w3.org/2000/svg">
<path d="M15.7757 4.43876C14.7134 3.92718 13.5743 3.55027 12.3833 3.3344C12.3616 3.33024 12.3399 3.34065 12.3287 3.36147C12.1822 3.63495 12.02 3.99173 11.9063 4.27216C10.6253 4.07087 9.35082 4.07087 8.09606 4.27216C7.9824 3.9855 7.81423 3.63495 7.66707 3.36147C7.65589 3.34134 7.63423 3.33093 7.61254 3.3344C6.42216 3.54958 5.28303 3.92649 4.2201 4.43876C4.21089 4.44292 4.20301 4.44987 4.19777 4.45889C2.03708 7.84691 1.44517 11.1517 1.73554 14.4154C1.73686 14.4314 1.7454 14.4467 1.75722 14.4564C3.18279 15.5552 4.56369 16.2223 5.91895 16.6644C5.94064 16.6713 5.96362 16.663 5.97742 16.6443C6.29801 16.1848 6.58378 15.7003 6.8288 15.1908C6.84326 15.1609 6.82946 15.1255 6.79991 15.1137C6.34662 14.9333 5.915 14.7132 5.49981 14.4633C5.46697 14.4432 5.46434 14.3939 5.49456 14.3703C5.58193 14.3016 5.66932 14.2301 5.75275 14.1579C5.76784 14.1447 5.78888 14.1419 5.80662 14.1503C8.53423 15.4573 11.4872 15.4573 14.1826 14.1503C14.2004 14.1413 14.2214 14.144 14.2371 14.1572C14.3206 14.2294 14.408 14.3016 14.496 14.3703C14.5262 14.3939 14.5242 14.4432 14.4914 14.4633C14.0762 14.7181 13.6446 14.9333 13.1906 15.113C13.1611 15.1248 13.1479 15.1609 13.1624 15.1908C13.4127 15.6996 13.6985 16.1841 14.0131 16.6436C14.0263 16.663 14.0499 16.6713 14.0716 16.6644C15.4334 16.2223 16.8143 15.5552 18.2399 14.4564C18.2524 14.4467 18.2603 14.4321 18.2616 14.4161C18.6091 10.6428 17.6795 7.3652 15.7974 4.45958C15.7928 4.44987 15.7849 4.44292 15.7757 4.43876ZM7.23613 12.4281C6.41493 12.4281 5.73829 11.6369 5.73829 10.6651C5.73829 9.69329 6.40181 8.902 7.23613 8.902C8.077 8.902 8.74709 9.70023 8.73395 10.6651C8.73395 11.6369 8.07042 12.4281 7.23613 12.4281ZM12.7741 12.4281C11.953 12.4281 11.2763 11.6369 11.2763 10.6651C11.2763 9.69329 11.9398 8.902 12.7741 8.902C13.615 8.902 14.2851 9.70023 14.272 10.6651C14.272 11.6369 13.615 12.4281 12.7741 12.4281Z" fill="white" fill-opacity="0.5"/>
</svg>
