<svg width="20" height="20" viewBox="0 0 20 20" fill="none" xmlns="http://www.w3.org/2000/svg">
<path fill-rule="evenodd" clip-rule="evenodd" d="M13.4291 6.21403C12.5513 5.39344 11.3799 4.94639 10.1679 4.96477C7.95004 4.96477 6.06644 6.43142 5.39483 8.40635C5.03873 9.44128 5.03873 10.562 5.39483 11.5969H5.39795C6.07267 13.5688 7.95316 15.0355 10.171 15.0355C11.3159 15.0355 12.2987 14.7484 13.0605 14.2414V14.2394C13.957 13.6576 14.5692 12.7421 14.7598 11.7072H10.1679V8.49827H18.1865C18.2865 9.05554 18.3333 9.62506 18.3333 10.1915C18.3333 12.726 17.4093 14.8689 15.8014 16.3202L15.8031 16.3215C14.3943 17.5952 12.4607 18.3332 10.1679 18.3332C6.95357 18.3332 4.01414 16.5573 2.57097 13.7433C1.36522 11.3887 1.36523 8.6146 2.57098 6.25998C4.01415 3.44301 6.95356 1.66707 10.1679 1.66707C12.2795 1.64257 14.3193 2.4203 15.8562 3.83491L13.4291 6.21403Z" fill="white" fill-opacity="0.5"/>
</svg>
