<?xml version="1.0" encoding="UTF-8"?><svg id="a" xmlns="http://www.w3.org/2000/svg" viewBox="0 0 243.5 207.35"><defs><style>.c{fill:#f4b1a4;}</style></defs><g id="b"><path class="c" d="M200.19,78.66c-2.98-1.68-6.36-2.56-9.78-2.56-2.87,0-5.64,.57-7.78,1.6-1.29,.62-2.47,1.46-3.72,2.36-.94,.67-1.9,1.36-2.94,1.97-3.99,2.34-8.54,2.44-12.49,.27-3.57-1.96-5.94-5.38-6.45-9.15-.2-.28-.32-.61-.32-.98v-13.61c0-22.62-18.4-41.01-41.02-41.01s-41.01,18.4-41.01,41.01v13.75c0,.18-.03,.34-.08,.5-.41,3.9-2.8,7.47-6.48,9.49-3.95,2.17-8.5,2.07-12.49-.27-1.04-.61-2.01-1.3-2.94-1.97-1.25-.89-2.44-1.74-3.72-2.36-2.15-1.03-4.91-1.6-7.78-1.6-3.42,0-6.8,.89-9.78,2.56-7.39,4.16-11.19,12.78-9.46,21.44,0,.05,.02,.09,.02,.14,.04,.36,4.01,35.89,4.2,56.24,0,.17-.03,.33-.07,.48v2.4c0,6.02,4.89,10.91,10.91,10.91s10.91-4.89,10.91-10.91h0v-8.52c0-7.88,6.41-14.29,14.29-14.29s14.29,6.41,14.29,14.29v37.1c0,6.65,5.41,12.06,12.06,12.06s12.06-5.41,12.06-12.06c0-.02,0-.03,0-.05s0-.03,0-.05c0-8.51,6.92-15.43,15.43-15.43s15.43,6.92,15.43,15.43v7.45c0,6.65,5.41,12.06,12.06,12.06s12.06-5.41,12.06-12.06v-44.45c0-7.88,6.41-14.29,14.29-14.29s14.29,6.41,14.29,14.29v8.51h0c0,6.02,4.89,10.92,10.91,10.92s10.44-5,10.44-11.15v-6.39c.57-20.63,4.1-52.17,4.13-52.49,0-.05,.01-.1,.02-.14,1.73-8.66-2.07-17.28-9.46-21.44Zm-114.46-19.75c.5-4.86,5.56-8.53,11.75-8.53s11.25,3.67,11.75,8.53c.04,.41-.09,.82-.37,1.12-.28,.3-.67,.48-1.08,.48h-20.62c-.41,0-.8-.17-1.08-.48-.27-.3-.41-.71-.37-1.12Zm60.38,14.73l-4.99,15.35c-.2,.6-.72,1.05-1.34,1.14-.64,.1-1.26-.16-1.63-.68l-6.41-8.86-7.88,10.72c-.32,.43-.82,.69-1.36,.69h-.02c-.54,0-1.05-.28-1.36-.73l-5.41-7.82-5.41,7.81c-.31,.45-.82,.72-1.36,.73h-.02c-.54,0-1.04-.25-1.36-.69l-7.88-10.72-6.41,8.86c-.37,.51-1,.78-1.63,.68-.63-.1-1.15-.54-1.34-1.14l-5-15.35c-.29-.89,.2-1.84,1.08-2.13,.88-.29,1.84,.2,2.13,1.08l3.97,12.19,5.83-8.04c.32-.44,.82-.7,1.36-.7h0c.54,0,1.04,.26,1.36,.69l7.85,10.68,5.45-7.87s.05-.06,.08-.09c.04-.05,.08-.1,.12-.14,.04-.04,.09-.08,.14-.12,.03-.03,.06-.05,.09-.08,0,0,.02,0,.03-.02,.05-.04,.11-.06,.17-.09,.04-.02,.09-.05,.13-.07,.05-.02,.11-.03,.16-.05,.05-.02,.1-.03,.16-.04,.05-.01,.1-.01,.16-.02,.05,0,.11-.01,.16-.01s.11,0,.17,.01c.05,0,.1,0,.15,.02,.05,.01,.11,.03,.16,.05,.05,.02,.1,.03,.15,.05,.05,.02,.09,.05,.14,.07,.05,.03,.11,.06,.16,.09,0,0,.02,0,.03,.02,.04,.02,.06,.05,.09,.08,.05,.04,.09,.07,.13,.11,.05,.04,.08,.09,.12,.14,.02,.03,.05,.06,.08,.09l5.45,7.87,7.85-10.68c.32-.43,.82-.69,1.36-.69h0c.54,0,1.04,.26,1.36,.7l5.83,8.04,3.97-12.19c.29-.89,1.24-1.37,2.13-1.08,.89,.29,1.37,1.24,1.08,2.13Zm-.82-13.61c-.28,.3-.67,.48-1.08,.48h-20.62c-.41,0-.8-.17-1.08-.48-.27-.3-.41-.71-.37-1.12,.5-4.86,5.56-8.53,11.75-8.53s11.25,3.67,11.75,8.53c.04,.41-.09,.82-.37,1.12Z"/></g></svg>