<svg width="20" height="20" viewBox="0 0 20 20" fill="none" xmlns="http://www.w3.org/2000/svg">
<path fill-rule="evenodd" clip-rule="evenodd" d="M10.0044 6.14746C7.8762 6.14746 6.1496 7.87305 6.1496 10C6.1496 12.127 7.8762 13.8525 10.0044 13.8525C12.1326 13.8525 13.8592 12.127 13.8592 10C13.8592 7.87305 12.1326 6.14746 10.0044 6.14746ZM10.0044 12.499C8.6237 12.499 7.50391 11.3799 7.50391 10C7.50391 8.62012 8.6237 7.50098 10.0044 7.50098C11.3851 7.50098 12.5049 8.62012 12.5049 10C12.5049 11.3799 11.3851 12.499 10.0044 12.499Z" fill="white" fill-opacity="0.5"/>
<path d="M14.0116 6.89454C14.507 6.89454 14.9116 6.49317 14.9116 5.99513C14.9116 5.50001 14.507 5.09571 14.0116 5.09571C13.5162 5.09571 13.1117 5.49708 13.1117 5.99513C13.1117 6.49024 13.5133 6.89454 14.0116 6.89454Z" fill="white" fill-opacity="0.5"/>
<path fill-rule="evenodd" clip-rule="evenodd" d="M10.0044 2.5C7.96707 2.5 7.71204 2.50879 6.91176 2.54395C6.11442 2.5791 5.56625 2.70801 5.09136 2.89258C4.59595 3.08594 4.17676 3.34082 3.7605 3.75977C3.34131 4.17578 3.08628 4.59473 2.89281 5.08691C2.70813 5.56445 2.57915 6.10937 2.54397 6.90625C2.50879 7.70898 2.5 7.96387 2.5 10C2.5 12.0361 2.50879 12.291 2.54397 13.0908C2.57915 13.8877 2.70813 14.4355 2.89281 14.9102C3.08628 15.4053 3.34131 15.8242 3.7605 16.2402C4.17676 16.6562 4.59595 16.9141 5.08843 17.1045C5.56625 17.2891 6.11149 17.418 6.90883 17.4531C7.70911 17.4883 7.96414 17.4971 10.0015 17.4971C12.0388 17.4971 12.2938 17.4883 13.0941 17.4531C13.8914 17.418 14.4396 17.2891 14.9145 17.1045C15.407 16.9141 15.8262 16.6562 16.2424 16.2402C16.6587 15.8242 16.9166 15.4053 17.1072 14.9131C17.2919 14.4355 17.4209 13.8906 17.456 13.0937C17.4912 12.2939 17.5 12.0391 17.5 10.0029C17.5 7.9668 17.4912 7.71191 17.456 6.91211C17.4209 6.11523 17.2919 5.56738 17.1072 5.09277C16.9225 4.59473 16.6675 4.17578 16.2483 3.75977C15.832 3.34375 15.4128 3.08594 14.9204 2.89551C14.4425 2.71094 13.8973 2.58203 13.1 2.54687C12.2968 2.50879 12.0417 2.5 10.0044 2.5ZM10.0044 3.85059C12.0095 3.85059 12.2469 3.85937 13.0355 3.89453C13.7683 3.92676 14.1641 4.0498 14.4279 4.15234C14.7767 4.28711 15.0288 4.45117 15.2897 4.71191C15.5535 4.97559 15.7148 5.22461 15.8496 5.57324C15.9522 5.83691 16.0753 6.23535 16.1076 6.96484C16.1428 7.75586 16.1516 7.99316 16.1516 9.99414C16.1516 11.998 16.1428 12.2354 16.1076 13.0234C16.0753 13.7559 15.9522 14.1514 15.8496 14.415C15.7148 14.7637 15.5506 15.0156 15.2897 15.2764C15.0259 15.54 14.7767 15.7012 14.4279 15.8359C14.1641 15.9385 13.7654 16.0615 13.0355 16.0937C12.244 16.1289 12.0065 16.1377 10.0044 16.1377C7.99932 16.1377 7.76187 16.1289 6.97332 16.0937C6.24047 16.0615 5.84473 15.9385 5.58091 15.8359C5.23207 15.7012 4.97997 15.5371 4.71907 15.2764C4.45525 15.0127 4.29402 14.7637 4.15918 14.415C4.05658 14.1514 3.93346 13.7529 3.90121 13.0234C3.86603 12.2324 3.85724 11.9951 3.85724 9.99414C3.85724 7.99023 3.86603 7.75293 3.90121 6.96484C3.93346 6.23242 4.05658 5.83691 4.15918 5.57324C4.29402 5.22461 4.45818 4.97266 4.71907 4.71191C4.9829 4.44824 5.23207 4.28711 5.58091 4.15234C5.84473 4.0498 6.2434 3.92676 6.97332 3.89453C7.76187 3.85937 7.99932 3.85059 10.0044 3.85059Z" fill="white" fill-opacity="0.5"/>
</svg>
