<?xml version="1.0" encoding="UTF-8"?><svg id="a" xmlns="http://www.w3.org/2000/svg" viewBox="0 0 240.55 207.35"><defs><style>.c{fill:#f4b1a4;}</style></defs><g id="b"><path class="c" d="M108.69,113.36c12.58,0,25-.93,36.98-2.75,.78-.12,1.34-.85,1.22-1.63-2.6-17.61-17.81-31.17-36.13-31.17s-33.74,13.75-36.18,31.53c-.11,.78,.46,1.51,1.24,1.62,10.96,1.59,22,2.39,32.86,2.39Zm-23.73-18.66c7.17,.65,14.9,.96,23.64,.96,10.52,0,19.65-.44,27.92-1.36,.93-.1,1.76,.57,1.86,1.49,.1,.93-.57,1.76-1.49,1.86-8.39,.93-17.65,1.38-28.29,1.38-8.85,0-16.68-.32-23.95-.98-.93-.08-1.61-.9-1.53-1.83,.08-.93,.92-1.61,1.83-1.53Z"/><path class="c" d="M144.27,152.31c-.64,.57-.65,1.56,0,2.11l25.81,21.74c.9,.82,2.1,1.13,3.43,.93,1.46-.22,2.88-1.01,4-2.24,1.12-1.23,1.78-2.71,1.86-4.19,.07-1.35-.35-2.51-1.2-3.29l-25.69-21.85c-.6-.51-1.5-.41-1.99,.21-1.88,2.37-3.96,4.57-6.23,6.57Z"/><path class="c" d="M171.37,74.34l1.44,5.19c.02,.15,.04,.3,.06,.45v1.28c0,3.93-3.64,7.42-10.81,10.37-.95,.39-2.05-.15-2.29-1.2-.19-.82,.33-1.64,1.11-1.97,5.48-2.27,8.62-4.9,8.62-7.21v-1.05l-12.53-45.17c-2.84-8.52-10.86-14.3-19.92-14.3h-8.41c-6.32,0-9.7,1.57-11.29,5.25-2.52,5.82-5.93,7.04-8.36,7.04s-5.84-1.22-8.36-7.04c-1.6-3.68-4.97-5.25-11.29-5.25h-7.65c-9.39,0-17.64,6.22-20.22,15.25l-12.99,45.47c.22,2.71,4.63,5.77,11.91,8.24,.8,.27,1.36,1.06,1.22,1.89-.14,.87-.88,1.43-1.67,1.43-.18,0-.36-.03-.54-.09-9.52-3.21-14.33-7.15-14.31-11.71l.06-.43,1.87-6.55c.57-1.98-1.25-3.81-3.24-3.29-17.91,4.68-28.74,11.2-28.74,17.55,0,3.45,13.94,12.41,41.71,18.88,1.98,.46,3.92-.84,4.31-2.84,4.57-23.27,25.11-40.87,49.7-40.87s44.83,17.36,49.6,40.38c.41,2,2.37,3.29,4.36,2.8,25.42-6.28,38.19-14.97,38.19-18.34,0-6.28-10.66-12.76-28.3-17.43-1.99-.53-3.8,1.29-3.25,3.27Z"/><path class="c" d="M110.77,67.04c-26.08,0-47.29,21.21-47.29,47.29s21.21,47.29,47.29,47.29,47.29-21.21,47.29-47.29-21.21-47.29-47.29-47.29Zm0,87.19c-22,0-39.9-17.9-39.9-39.9s17.9-39.9,39.9-39.9,39.9,17.9,39.9,39.9-17.9,39.9-39.9,39.9Z"/></g></svg>