<?xml version="1.0" encoding="UTF-8"?>
<svg id="Layer_2" xmlns="http://www.w3.org/2000/svg" viewBox="0 0 1535.7 1228.57">
  <defs>
    <style>
      .cls-1 {
        fill: #fff;
      }
    </style>
  </defs>
  <g id="_Ñëîé_1" data-name="Ñëîé_1">
    <g>
      <path class="cls-1" d="M767.84,959.82c-182,0-329.33-140.88-342.89-319.4l-251.71-194.53c-33.09,41.51-63.54,85.4-88.11,133.39-11.13,22.02-11.13,48.02,0,70.04,153.13,310.95,526.19,497.08,869.61,400.58l-124.51-96.34c-20.56,3.97-41.44,6.07-62.39,6.26Z"/>
      <path class="cls-1" d="M1520.86,1099.23l-265.27-205.02c80.58-67.91,146.85-151.17,194.96-244.92,11.13-22.03,11.13-48.01,0-70.04C1269.04,206.76,784.91,34.57,414.34,244.04L109.07,8.1c-16.72-13.03-40.86-10.01-53.87,6.72,0,.02-.02.02-.02.02L8.08,75.47c-13.01,16.75-9.98,40.86,6.74,53.87l1411.78,1091.13c16.72,13.03,40.86,10.01,53.87-6.72.02,0,.02-.02.02-.02l47.13-60.64c13.01-16.75,9.98-40.86-6.77-53.87ZM1113.37,614.29c0,51.9-12.69,100.25-33.35,144.21l-94.3-72.9c60.68-172.98-102.91-344.7-278.61-292.57,14.47,19.6,22.29,43.34,22.34,67.69-.36,8.11-1.58,16.15-3.7,24l-176.63-136.51c221.82-186.5,565.87-23.3,564.25,266.08Z"/>
    </g>
  </g>
</svg>