<?xml version="1.0" encoding="UTF-8"?>
<svg id="Layer_2" xmlns="http://www.w3.org/2000/svg" viewBox="0 0 1382.11 916.27">
  <defs>
    <style>
      .cls-1 {
        fill: #fff;
      }
    </style>
  </defs>
  <g id="_Ñëîé_1" data-name="Ñëîé_1">
    <g>
      <path class="cls-1" d="M913.41,517.81c-91.63,291.1-511.8,176.82-443.62-120.41,106.96,75.77,236.4-53.49,160.53-160.53,169.38-50.13,330.56,111.36,283.1,280.94Z"/>
      <path class="cls-1" d="M1373.76,423.1c-283.89-564.27-1081.71-564.01-1365.42.03-11.11,22.02-11.11,48,0,70.03,283.89,564.27,1081.71,564.01,1365.42-.03,11.13-22.02,11.13-48,0-70.03ZM691.38,803.67c-190.93.19-345.88-154.58-345.87-345.53C363.71-.17,1018.43-.11,1036.58,458.14c.09,190.73-154.46,345.43-345.2,345.53Z"/>
      <path class="cls-1" d="M913.41,517.81c-91.63,291.1-511.8,176.82-443.62-120.41,106.96,75.77,236.4-53.49,160.53-160.53,169.38-50.13,330.56,111.36,283.1,280.94Z"/>
      <path class="cls-1" d="M913.41,517.81c-91.63,291.1-511.8,176.82-443.62-120.41,106.96,75.77,236.4-53.49,160.53-160.53,169.38-50.13,330.56,111.36,283.1,280.94Z"/>
    </g>
  </g>
</svg>