<svg width="20" height="20" viewBox="0 0 20 20" fill="none" xmlns="http://www.w3.org/2000/svg">
<path d="M9.99657 1.6665C5.38942 1.6665 1.66667 5.3961 1.66667 9.9964C1.66667 13.5272 3.86055 16.5438 6.95942 17.7573C6.884 17.0991 6.8223 16.0844 6.98683 15.3646C7.13767 14.7133 7.96037 11.2236 7.96037 11.2236C7.96037 11.2236 7.71357 10.7231 7.71357 9.98956C7.71357 8.8309 8.38543 7.96707 9.22185 7.96707C9.93487 7.96707 10.2777 8.50182 10.2777 9.13942C10.2777 9.85244 9.82517 10.922 9.58522 11.9161C9.3864 12.7456 10.0034 13.4244 10.8193 13.4244C12.3002 13.4244 13.4382 11.8612 13.4382 9.61249C13.4382 7.61742 12.0054 6.22567 9.95543 6.22567C7.5833 6.22567 6.19155 8.00134 6.19155 9.83872C6.19155 10.5517 6.46578 11.3196 6.80858 11.7378C6.87715 11.8201 6.884 11.8955 6.86343 11.9778C6.80173 12.2383 6.65775 12.8073 6.63033 12.9239C6.59605 13.0747 6.50692 13.109 6.34923 13.0336C5.32085 12.5399 4.6764 11.0179 4.6764 9.79759C4.6764 7.17179 6.58233 4.7585 10.1817 4.7585C13.068 4.7585 15.3168 6.81527 15.3168 9.57134C15.3168 12.444 13.5068 14.7544 10.9975 14.7544C10.1543 14.7544 9.35897 14.3156 9.0916 13.7946C9.0916 13.7946 8.67338 15.3851 8.57055 15.7759C8.38543 16.5027 7.8781 17.4076 7.5353 17.963C8.31688 18.2029 9.13958 18.3332 10.0034 18.3332C14.6037 18.3332 18.3333 14.6036 18.3333 10.0033C18.3265 5.3961 14.5969 1.6665 9.99657 1.6665Z" fill="white" fill-opacity="0.5"/>
</svg>
