<?xml version="1.0" encoding="UTF-8"?>
<svg id="Layer_2" xmlns="http://www.w3.org/2000/svg" viewBox="0 0 345.07 345.07">
  <defs>
    <style>
      .cls-1 {
        fill: #1e0702;
      }

      .cls-2 {
        fill: #05bad8;
      }

      .cls-3 {
        fill: #fff;
      }

      .cls-4 {
        fill: #056b27;
      }

      .cls-5 {
        fill: #ff933b;
      }
    </style>
  </defs>
  <g id="_x3C_Layer_x3E_">
    <g>
      <circle class="cls-5" cx="172.53" cy="172.53" r="172.53" transform="translate(-71.47 172.53) rotate(-45)"/>
      <path class="cls-1" d="M168.41,122.32l103.92-11.34c-8.27-38.06-41.81-66.85-82.43-67.5-47.38-.76-86.4,37.03-87.16,84.4-.72,44.45,32.5,81.54,75.73,86.59l-10.05-92.15Z"/>
      <circle class="cls-1" cx="94.73" cy="184.98" r="50.63" transform="translate(-103.05 121.16) rotate(-45)"/>
      <path class="cls-1" d="M91.44,232.06c-.29,0-.57,0-.86,0-29.09-.47-52.38-24.52-51.91-53.61.47-29.09,24.6-52.34,53.61-51.91,14.09.23,27.25,5.93,37.06,16.05,9.81,10.12,15.08,23.46,14.85,37.55-.47,28.8-24.04,51.92-52.75,51.92ZM91.42,130.8c-26.38,0-48.05,21.24-48.47,47.71-.43,26.74,20.97,48.84,47.7,49.27.26,0,.53,0,.79,0,26.38,0,48.05-21.24,48.47-47.71.21-12.95-4.64-25.21-13.65-34.51-9.01-9.3-21.1-14.54-34.06-14.75-.26,0-.53,0-.79,0Z"/>
      <path class="cls-3" d="M148.86,120.57c-2.92-9.06-10.09-15.5-18.56-15.58-10.68-.1-19.87,10.43-20.5,23.52-.68,14.17,8.36,25.98,19.82,26.16,2.45.04,4.8-.49,7-1.43l-14.87,101.47c-1.77,12.11,6.16,23.52,18.14,26.06l5.54,1.18c20.33,4.32,39.77-12.41,43.43-37.37l16.41-112.03-56.4-11.98Z"/>
      <ellipse class="cls-3" cx="201.4" cy="155.08" rx="54.53" ry="77.49" transform="translate(-24.85 39.23) rotate(-10.48)"/>
      <path d="M189.6,229.62c-.31,0-.62-.07-.92-.21-12.12-5.78-23.21-16.82-31.24-31.08-.58-1.03-.21-2.33.81-2.91,1.03-.58,2.33-.21,2.91.81,7.6,13.5,18.02,23.92,29.35,29.32,1.06.51,1.52,1.78,1.01,2.85-.37.77-1.13,1.22-1.93,1.22Z"/>
      <path d="M239.4,121.86c-.67,1.7,2.6,4.59,7.31,6.45,4.71,1.86,9.07,2,9.74.3.67-1.7-2.6-4.59-7.31-6.45-4.71-1.86-9.07-2-9.74-.3Z"/>
      <path d="M189.4,131.44c.79,2.12,6.2,2.07,12.09-.13,5.88-2.2,10.01-5.7,9.22-7.82-.79-2.12-6.2-2.07-12.09.13-5.88,2.2-10.01,5.7-9.22,7.82Z"/>
      <path d="M225.83,209.28c-8.28,0-13.06-10.96-13.28-11.49-.46-1.08.04-2.34,1.12-2.8,1.1-.47,2.34.04,2.8,1.12.05.11,4.69,10.7,11.19,8.58,1.13-.37,2.33.25,2.69,1.37.37,1.12-.25,2.33-1.37,2.69-1.1.36-2.16.52-3.16.52Z"/>
      <path d="M140.86,135.93c-.08,0-.15,0-.23-.01-1.17-.13-2.02-1.18-1.9-2.35.57-5.34-.41-9.56-2.92-12.55-3.57-4.26-9.05-4.69-9.11-4.69-1.18-.08-2.07-1.1-1.99-2.28.08-1.18,1.11-2.05,2.28-1.98.3.02,7.36.57,12.09,6.21,3.28,3.92,4.59,9.22,3.89,15.75-.12,1.1-1.04,1.91-2.12,1.91Z"/>
      <path d="M240.04,153.69c0,3.8,2.28,6.87,5.08,6.87s5.08-3.08,5.08-6.87-2.28-6.87-5.08-6.87-5.08,3.08-5.08,6.87Z"/>
      <path d="M207.31,155.05c.43,3.77,3.05,6.57,5.84,6.25,2.79-.32,4.7-3.64,4.27-7.41-.43-3.77-3.05-6.57-5.84-6.25-2.79.32-4.7,3.64-4.27,7.41Z"/>
      <path d="M203.69,119.31c6.74-10.35,12.01-23.04,15.06-37.41.11-.52.2-1.04.3-1.57-10.1-6.68-21.18-9.52-32.16-7.33-20.7,4.12-35.78,25-41.01,52.62l57.8-6.31Z"/>
      <path class="cls-1" d="M279.67,111.47c-.92,0-1.76-.59-2.04-1.51-.13-.44-13.9-44.06-56.19-54.09-1.15-.27-1.86-1.42-1.59-2.57.27-1.15,1.42-1.86,2.57-1.59,44.72,10.6,59.15,56.54,59.29,57,.34,1.13-.29,2.32-1.42,2.66-.21.06-.42.09-.62.09Z"/>
      <path class="cls-2" d="M206.73,182.44c-10.73,0-19.46-11.49-19.46-25.6s8.73-25.6,19.46-25.6,19.47,11.48,19.47,25.6-8.73,25.6-19.47,25.6ZM206.73,135.5c-8.38,0-15.19,9.57-15.19,21.33s6.81,21.33,15.19,21.33,15.19-9.57,15.19-21.33-6.81-21.33-15.19-21.33Z"/>
      <path class="cls-2" d="M251.86,182.44c-10.73,0-19.47-11.49-19.47-25.6s8.73-25.6,19.47-25.6,19.47,11.48,19.47,25.6-8.73,25.6-19.47,25.6ZM251.86,135.5c-8.38,0-15.19,9.57-15.19,21.33s6.82,21.33,15.19,21.33,15.19-9.57,15.19-21.33-6.82-21.33-15.19-21.33Z"/>
      <path class="cls-2" d="M232.36,158.97h-6.49c-1.18,0-2.14-.96-2.14-2.14s.96-2.14,2.14-2.14h6.49c1.18,0,2.14.96,2.14,2.14s-.96,2.14-2.14,2.14Z"/>
      <path d="M231.59,184.34c-.61,0-1.22-.26-1.64-.77-.76-.91-.64-2.25.27-3.01,1.45-1.21,2.13-3.05,1.83-4.91l-2.42-14.65c-.19-1.16.59-2.26,1.76-2.46,1.15-.19,2.26.6,2.46,1.76l2.42,14.65c.55,3.32-.72,6.73-3.3,8.89-.4.33-.89.5-1.37.5Z"/>
      <rect class="cls-4" x="109.12" y="247.01" width="95.15" height="48.88" rx="5.91" ry="5.91" transform="translate(26.58 -13.7) rotate(5.47)"/>
      <path class="cls-4" d="M172.53,345.07c44.59,0,85.22-16.92,115.85-44.68-12.42-5.59-25.92-9.28-40.22-10.61l-146.79-13.63c-20.98-1.95-41.28,1.35-59.66,8.8,31.64,36.79,78.5,60.13,130.83,60.13Z"/>
    </g>
  </g>
</svg>