<?xml version="1.0" encoding="UTF-8"?><svg id="a" xmlns="http://www.w3.org/2000/svg" viewBox="0 0 243.5 207.35"><defs><style>.c{fill:#f4b1a4;}</style></defs><g id="b"><path class="c" d="M202.27,127.66c-.61,.79-1.52,1.24-2.51,1.24h-14.07c-.93,0-1.69,.75-1.69,1.69,0,.21,.11,7.13,.11,7.13,0,18.34-7.67,28.18-24.87,31.89-.87,.08-1.55,.79-1.55,1.68v30.96c0,1.9-1.54,3.45-3.44,3.45H82.13c-1.9,0-3.44-1.55-3.44-3.45v-44.71c0-.89-.6-1.32-.8-1.44-23.75-14.55-37.09-41.15-35.1-68.99,.64-8.97,2.87-17.47,6.38-25.27,.01-.02,.02-.03,.05-.05,11.2-16.1,27.99-27.02,47.25-30.75,15.63-3.03,31.5,.23,44.7,9.14,13.19,8.91,22.12,22.43,25.14,38.06,2.41,12.42-.17,25.03-7.26,35.5-7.08,10.49-17.82,17.57-30.24,19.98-9.84,1.9-19.83-.13-28.15-5.75-8.3-5.61-13.93-14.13-15.84-23.97-3.11-16.08,7.45-31.69,23.52-34.8,6.14-1.19,12.38,.08,17.56,3.59,5.17,3.5,8.68,8.81,9.88,14.95,.93,4.83-.07,9.73-2.82,13.79-2.74,4.07-6.92,6.83-11.74,7.76-3.77,.73-7.6-.05-10.79-2.2-3.18-2.15-5.33-5.41-6.06-9.18-.56-2.92,.05-5.9,1.71-8.37,1.68-2.47,4.21-4.15,7.13-4.71,4.65-.9,9.17,2.15,10.07,6.81,.34,1.72-.02,3.45-1,4.91-.98,1.45-2.46,2.43-4.17,2.76-1.28,.25-2.59-.01-3.67-.74-1.08-.74-1.82-1.84-2.07-3.13-.18-.94,.02-1.89,.55-2.69,.54-.79,1.35-1.33,2.28-1.51,.66-.12,1.34,.01,1.89,.39,.56,.37,.94,.94,1.07,1.61,.18,.91,1.07,1.51,1.98,1.34,.91-.18,1.51-1.07,1.34-1.98-.3-1.55-1.19-2.89-2.5-3.77-1.31-.89-2.87-1.2-4.42-.9-1.82,.35-3.4,1.4-4.44,2.93-1.03,1.54-1.41,3.4-1.06,5.22,.42,2.16,1.65,4.04,3.49,5.28s4.04,1.69,6.2,1.27c2.6-.51,4.85-1.99,6.33-4.18,1.49-2.19,2.02-4.84,1.52-7.44-1.26-6.48-7.55-10.73-14.03-9.47-3.81,.73-7.11,2.91-9.28,6.13-2.18,3.22-2.97,7.09-2.23,10.9,.9,4.66,3.56,8.69,7.48,11.34,3.94,2.66,8.66,3.62,13.32,2.72,5.7-1.1,10.64-4.36,13.9-9.19,3.25-4.82,4.44-10.61,3.33-16.32-1.36-7.02-5.37-13.11-11.31-17.11-5.92-4-13.05-5.47-20.08-4.11-17.91,3.46-29.66,20.85-26.19,38.76,2.07,10.72,8.2,20,17.26,26.12,6.85,4.62,14.75,7.03,22.83,7.03,2.61,0,5.24-.25,7.86-.75,13.3-2.58,24.81-10.18,32.39-21.41,7.58-11.22,10.34-24.73,7.77-38.02-3.2-16.53-12.63-30.8-26.57-40.23-13.94-9.42-30.71-12.84-47.23-9.64-9.17,1.77-17.81,5.11-25.59,9.81h-.01c-.16,.09-.32,.19-.46,.29-.11,.03-.24,.06-.37,.06-.66,0-1.19-.54-1.19-1.19,0-.25,.08-.48,.2-.66,0-.01,.01-.01,.01-.01,.16-.14,.32-.27,.47-.41,12.23-10.41,27.84-16.94,44.94-17.73,33.75-1.56,64.47,19.77,74.72,51.77l14.29,55.25c.25,.96,.04,1.96-.56,2.73Z"/></g></svg>