<?xml version="1.0" encoding="UTF-8"?><svg id="a" xmlns="http://www.w3.org/2000/svg" viewBox="0 0 240.55 207.35"><defs><style>.c{fill:#f4b1a4;}</style></defs><g id="b"><path class="c" d="M37.51,60.6c16.34-11.67,42.45-5.47,67.08,15.72,.6,.52,1.48,.56,2.11,.07,3.13-2.44,7.16-4.56,8.67-6.91,14.21-22.13,14.06-43.04-.6-53.4-11.64-8.22-31.8-2.66-50.19,13.82-.64,.57-1.61,.57-2.25,0C44.22,13.7,24.13,8.46,12.37,16.86,6.06,21.37,2.15,27.91,1.08,35.78c-1.75,12.85,4.05,28.31,16.35,43.52,.75,.92,1.55,1.88,2.41,2.87,.92,1.06,2.63,.64,3.01-.71,2.39-8.53,7.39-15.66,14.67-20.86Z"/><path class="c" d="M145.59,92.53c-8.92-6.3-24.43-1.98-38.62,10.74-.64,.57-1.61,.58-2.25,0-9.56-8.54-19.81-13.15-28.21-13.15-3.89,0-7.39,.99-10.24,3.02-4.83,3.45-7.82,8.45-8.64,14.48-1.35,9.9,3.14,21.84,12.65,33.6,9.24,11.43,26.9,25.8,33.47,31,.9,.71,2.15,.71,3.04,0,6.63-5.28,24.57-19.96,34-31.56,9.83-12.09,14.5-24.24,13.13-34.2-.8-5.82-3.68-10.64-8.34-13.93Z"/><path class="c" d="M171.86,63.34c-15.25-10.89-41.39-3.89-65.06,17.41-.64,.58-1.62,.58-2.26,0-16.23-14.6-33.62-22.48-47.87-22.48-6.53,0-12.4,1.66-17.19,5.08-8.09,5.77-13.1,14.19-14.48,24.33-2.3,16.82,5.35,37.15,21.54,57.22,15.01,18.62,43.16,41.91,54.86,51.28,2.5,2,6.05,2,8.55,0,11.7-9.38,39.85-32.67,54.86-51.28,16.19-20.08,23.84-40.4,21.54-57.22-1.39-10.14-6.4-18.56-14.48-24.33Zm-28.44,79.45c-11.91,14.64-36.08,33.32-37.11,34.1-.3,.23-.67,.35-1.03,.35s-.72-.12-1.02-.35c-1.01-.77-24.91-19.09-36.6-33.56-10.1-12.5-14.84-25.35-13.37-36.18,.95-6.97,4.42-12.76,10.02-16.77,10.24-7.31,26.43-3.62,41.53,9.37,15.3-13.22,31.56-17.15,41.69-9.99,5.44,3.84,8.81,9.46,9.74,16.23,1.5,10.9-3.42,23.96-13.85,36.79Z"/></g></svg>