<?xml version="1.0" encoding="UTF-8"?><svg id="a" xmlns="http://www.w3.org/2000/svg" viewBox="0 0 243.5 207.35"><defs><style>.c{fill:#f4b1a4;}</style></defs><g id="b"><path class="c" d="M92.98,134.96c-1.55,1.47-3.71,2.31-5.97,2.31-.19,0-.38-.01-.57-.02-2.36-.13-4.42-1.16-5.82-2.86-3.3-4.03-1.41-9.72,1.45-18.33,.79-2.37,1.69-5.06,2.55-7.98,.24-.8,1.03-1.3,1.87-1.18,.82,.11,1.44,.83,1.44,1.67,0,4.87,3.48,10.28,4.96,12.59l.35,.54c3.15,5.01,3.05,10.09-.26,13.26Z"/><path class="c" d="M114.56,185.9c-1.55,1.47-3.7,2.31-5.97,2.31-.19,0-.38-.01-.57-.02-2.35-.14-4.42-1.16-5.82-2.86-3.3-4.04-1.41-9.72,1.45-18.33,.8-2.37,1.69-5.06,2.55-7.98,.25-.8,1.02-1.31,1.87-1.19,.82,.12,1.44,.83,1.44,1.68,0,4.87,3.48,10.28,4.96,12.59l.35,.54c3.15,5.01,3.05,10.09-.26,13.26Z"/><path class="c" d="M170.9,98.18c-10.91-9.58-61.78-54.26-75.13-66.01-.79-.69-1.99-.01-1.83,1.03,1.03,6.41-.64,12.2-2.27,17.84-1.05,3.62-2.13,7.37-2.52,11.3-.53,5.4,1.3,10.42,3.24,15.74,2.01,5.51,4.09,11.21,3.43,17.5-.05,.5-.11,.93-.17,1.32v.03c-.15,1.01,.18,2.03,.88,2.76,5.77,6.03,29.96,31.1,37.04,38.44,1.06,1.1,2.83,1.08,3.88-.04l33.63-36.07c1.03-1.1,.94-2.84-.19-3.83Z"/><path class="c" d="M92.54,91.84c-.26-4.26-1.75-8.35-3.31-12.62-1.98-5.44-4.04-11.07-3.43-17.23,.42-4.24,1.55-8.13,2.64-11.9,2.01-6.95,3.91-13.52,.87-21.1-1.02-2.54-2.48-4.27-3.69-5.63-1.22-1.37-16.01-14.14-23.57-20.61-1.08-.92-2.75-.27-2.91,1.14-.61,5.53-.93,10.98-.94,16.26-.07,25.44,9.8,49.75,27.81,68.46,1.33,1.39,2.7,2.81,4.08,4.26,.91,.95,2.54,.28,2.46-1.03Z"/><path class="c" d="M177.12,104.76c-.97-1.19-2.78-1.22-3.81-.08-4.1,4.52-10,10.74-16.17,17.23-5.08,5.35-10.27,10.81-14.37,15.26-.7,.75,.05,1.95,1.04,1.66,.91-.27,1.81-.54,2.7-.8,8.93-2.69,16.64-5.01,25.42,1.49-.02-.01,53.05,35.78,50.57,42.33-.06,.15-.09,.34-.1,.56-.12,2.17,2.11,3.73,4.16,3.03,.94-.32,1.81-.78,2.41-1.36,3.56-3.46,11.85-13.52,12.79-14.64,2.27-2.71,2.32-5.13,.15-7.19-3.06-2.92-51.22-40.88-64.79-57.49Zm49.2,64.71c-2.79,0-5.06-2.27-5.06-5.06s2.27-5.06,5.06-5.06,5.06,2.27,5.06,5.06-2.27,5.06-5.06,5.06Z"/></g></svg>