<svg width="40" height="40" viewBox="0 0 40 40" fill="none" xmlns="http://www.w3.org/2000/svg">
<path d="M17.4767 27.8833C17.258 27.8838 17.0412 27.841 16.839 27.7575C16.6368 27.674 16.4531 27.5513 16.2984 27.3967L9.22839 20.325C9.06911 20.1714 8.94201 19.9875 8.85452 19.7843C8.76703 19.581 8.7209 19.3623 8.71882 19.141C8.71675 18.9197 8.75876 18.7002 8.84242 18.4953C8.92607 18.2905 9.0497 18.1043 9.20607 17.9477C9.36245 17.7911 9.54845 17.6672 9.75321 17.5833C9.95798 17.4993 10.1774 17.457 10.3987 17.4588C10.62 17.4605 10.8387 17.5063 11.0421 17.5935C11.2455 17.6807 11.4295 17.8076 11.5834 17.9667L17.4751 23.8583L28.0834 13.2533C28.3959 12.9406 28.8199 12.7648 29.262 12.7646C29.7041 12.7645 30.1282 12.94 30.4409 13.2525C30.7536 13.565 30.9294 13.9889 30.9296 14.4311C30.9297 14.8732 30.7542 15.2973 30.4417 15.61L18.6551 27.3967C18.5004 27.5513 18.3166 27.674 18.1144 27.7575C17.9122 27.841 17.6955 27.8838 17.4767 27.8833Z" fill="#189620"/>
</svg>
